G04 ================== begin FILE IDENTIFICATION RECORD ==================*
G04 Layout Name:  C:/NXP/work/2024/01/LAY-90841/PCB/0614/FabOutput/LAY-90841_A4.brd*
G04 Film Name:    psp.art*
G04 File Format:  Gerber RS274X*
G04 File Origin:  Cadence Allegro 17.4-S018*
G04 Origin Date:  Fri Jun 14 16:18:40 2024*
G04 *
G04 Layer:  BOARD GEOMETRY/OUTLINE*
G04 Layer:  BOARD GEOMETRY/CUTOUT*
G04 Layer:  BOARD GEOMETRY/PASTEMASK_TOP*
G04 Layer:  PIN/PASTEMASK_TOP*
G04 Layer:  PACKAGE GEOMETRY/PASTEMASK_TOP*
G04 Layer:  DRAWING FORMAT/FILM_TITLE_BLOCK*
G04 Layer:  BOARD GEOMETRY/DESIGN_OUTLINE*
G04 *
G04 Offset:    (0.000 0.000)*
G04 Mirror:    No*
G04 Mode:      Positive*
G04 Rotation:  0*
G04 FullContactRelief:  No*
G04 UndefLineWidth:     8.000*
G04 ================== end FILE IDENTIFICATION RECORD ====================*
%FSLAX55Y55*MOIN*%
%IR0*IPPOS*OFA0.00000B0.00000*MIA0B0*SFA1.00000B1.00000*%
%AMMACRO31*
4,1,21,.015748,-.005906,
-.009843,-.005906,
-.010869,-.005816,
-.011863,-.00555,
-.012796,-.005115,
-.013639,-.004524,
-.014367,-.003796,
-.014958,-.002953,
-.015393,-.00202,
-.015659,-.001025,
-.015749,0.0,
-.015659,.001026,
-.015392,.00202,
-.014957,.002953,
-.014366,.003797,
-.013638,.004525,
-.012795,.005115,
-.011862,.00555,
-.010868,.005816,
-.009843,.005906,
.015748,.005906,
.015748,-.005906,
0.0*
%
%ADD31MACRO31*%
%AMMACRO29*
4,1,21,-.015748,.005906,
.009843,.005906,
.010869,.005816,
.011863,.00555,
.012796,.005115,
.013639,.004524,
.014367,.003796,
.014958,.002953,
.015393,.00202,
.015659,.001025,
.015749,0.0,
.015659,-.001026,
.015392,-.00202,
.014957,-.002953,
.014366,-.003797,
.013638,-.004525,
.012795,-.005115,
.011862,-.00555,
.010868,-.005816,
.009843,-.005906,
-.015748,-.005906,
-.015748,.005906,
0.0*
%
%ADD29MACRO29*%
%ADD28R,.031X.033*%
%ADD16R,.025X.012*%
%ADD13R,.03X.015*%
%ADD34R,.033X.031*%
%ADD32R,.022X.06*%
%ADD27R,.02X.018*%
%ADD11R,.024X.032*%
%ADD23O,.035X.06*%
%ADD39R,.026X.041*%
%ADD36R,.012X.065*%
%ADD18O,.045X.035*%
%ADD14R,.041X.026*%
%ADD35R,.065X.012*%
%ADD22R,.04X.055*%
%ADD17R,.018X.051*%
%ADD12O,.035X.045*%
%ADD33R,.022X.065*%
%ADD30C,.011*%
%ADD37R,.055X.063*%
%ADD25R,.045X.055*%
%ADD26R,.051X.059*%
%ADD10C,.025*%
%ADD38R,.057X.018*%
%ADD15R,.039X.028*%
%ADD24R,.028X.039*%
%ADD21R,.043X.079*%
%ADD20R,.079X.043*%
%ADD19R,.032X.032*%
%ADD40R,.026X.026*%
%ADD41C,.006*%
%ADD42C,.01*%
%ADD43C,.02*%
%ADD44C,.008*%
G75*
%LPD*%
G75*
G36*
G01X66609Y32990D02*
X64050D01*
Y29053D01*
X66609D01*
Y32990D01*
G37*
G36*
G01X63066D02*
X60507D01*
Y29053D01*
X63066D01*
Y32990D01*
G37*
G36*
G01Y37911D02*
X60507D01*
Y33974D01*
X63066D01*
Y37911D01*
G37*
G36*
G01X66609D02*
X64050D01*
Y33974D01*
X66609D01*
Y37911D01*
G37*
G36*
G01X118382Y25638D02*
X116162D01*
Y23868D01*
X113722D01*
Y25638D01*
X111502D01*
Y27108D01*
X118382D01*
Y25638D01*
G37*
G36*
G01Y33808D02*
Y27898D01*
X111502D01*
Y33808D01*
X118382D01*
G37*
G36*
G01X116162Y42168D02*
Y37058D01*
X118382Y34848D01*
Y34588D01*
X111502D01*
Y34848D01*
X113722Y37058D01*
Y42168D01*
X116162D01*
G37*
G54D10*
X-30750Y164750D03*
X-26750D03*
X-21750D03*
X-17750D03*
X-13250D03*
X-7346Y13000D03*
X-7558Y40518D03*
X-9250Y164750D03*
X-3346Y13000D03*
X-3558Y40518D03*
X-2558Y60518D03*
Y65518D03*
Y85518D03*
Y123018D03*
Y128018D03*
Y145518D03*
X1442Y60518D03*
Y65518D03*
Y85518D03*
Y123018D03*
Y128018D03*
Y145518D03*
X7750Y18250D03*
Y23250D03*
Y28250D03*
Y33250D03*
X11750Y18250D03*
Y23250D03*
Y28250D03*
Y33250D03*
X16750Y42750D03*
X20750D03*
X22942Y112018D03*
X26942D03*
X31942D03*
Y116018D03*
X41558Y26982D03*
Y30982D03*
Y35982D03*
Y39982D03*
X41942Y102018D03*
Y106018D03*
X40250Y113250D03*
Y117250D03*
X41750Y162250D03*
Y166250D03*
X46558Y20982D03*
Y25982D03*
Y30982D03*
Y35982D03*
Y40982D03*
X44250Y113250D03*
Y117250D03*
X44750Y135250D03*
X44942Y139518D03*
X50558Y20982D03*
Y25982D03*
Y30982D03*
Y35982D03*
Y40982D03*
X49442Y84518D03*
Y88518D03*
X48750Y135250D03*
X48942Y139518D03*
X51750Y162250D03*
Y166250D03*
X54442Y84518D03*
Y88518D03*
Y139518D03*
Y143518D03*
Y149518D03*
Y153518D03*
X59442Y139518D03*
Y143518D03*
Y149518D03*
Y153518D03*
X61750Y162250D03*
Y166250D03*
X64442Y139518D03*
X68442D03*
X71750Y162250D03*
Y166250D03*
X76250Y31250D03*
Y35250D03*
X82250Y31250D03*
Y35250D03*
X84942Y93518D03*
Y98518D03*
Y104018D03*
Y109018D03*
Y114018D03*
Y119018D03*
Y124518D03*
Y129518D03*
X88942Y93518D03*
Y98518D03*
Y104018D03*
Y109018D03*
Y114018D03*
Y119018D03*
Y124518D03*
Y129518D03*
X99942Y28518D03*
Y32518D03*
X111750Y81518D03*
Y85518D03*
X133000Y67500D03*
X134942Y28518D03*
Y32518D03*
X137000Y67500D03*
X137442Y97518D03*
Y101518D03*
Y141518D03*
X141442D03*
X154500Y125000D03*
Y130000D03*
X159250Y69250D03*
Y73250D03*
Y89250D03*
Y93250D03*
X158500Y125000D03*
Y130000D03*
X177750Y130550D03*
X181750Y57500D03*
Y130550D03*
X185750Y57500D03*
X190750Y130550D03*
X186750D03*
X189750Y150750D03*
X193750D03*
X198750D03*
X202750D03*
X205250Y130550D03*
X213250Y57500D03*
X209250D03*
Y130550D03*
X225750Y164250D03*
Y171250D03*
Y176250D03*
X229750Y164250D03*
Y171250D03*
Y176250D03*
X235250Y60750D03*
Y65750D03*
X234250Y91250D03*
Y95250D03*
Y99750D03*
X239250Y60750D03*
Y65750D03*
X238982Y81558D03*
Y85558D03*
Y91058D03*
Y95058D03*
X238250Y99750D03*
X271250Y162750D03*
Y166750D03*
X275250Y162750D03*
Y166750D03*
X275065Y190250D03*
Y195750D03*
X279065Y190250D03*
Y195750D03*
X294750Y22250D03*
Y27250D03*
X295942Y144518D03*
Y148518D03*
X298750Y22250D03*
Y27250D03*
X302442Y144518D03*
Y148518D03*
G54D20*
X19501Y63018D03*
X36883Y55018D03*
G54D11*
X-7346Y3500D03*
Y8500D03*
X-654Y3500D03*
Y8500D03*
G54D21*
X14442Y110459D03*
G54D30*
X52631Y102207D03*
Y104175D03*
X54600Y102207D03*
Y104175D03*
X56568Y102207D03*
Y104175D03*
X52631Y106144D03*
X54600D03*
X52631Y110081D03*
Y112049D03*
X54600Y110081D03*
Y112049D03*
X52631Y114018D03*
Y115986D03*
X54600Y114018D03*
Y115986D03*
X56568Y114018D03*
X52631Y117955D03*
Y121892D03*
X54600Y117955D03*
Y121892D03*
X52631Y123860D03*
Y125829D03*
X54600Y123860D03*
Y125829D03*
X56568Y123860D03*
Y125829D03*
X60505Y102207D03*
Y104175D03*
Y110081D03*
Y112049D03*
Y114018D03*
Y115986D03*
Y117955D03*
Y123860D03*
Y125829D03*
X62474Y102207D03*
Y104175D03*
X64442Y102207D03*
Y104175D03*
Y106144D03*
Y110081D03*
X62474D03*
Y112049D03*
X64442D03*
X62474Y115986D03*
X64442D03*
X62474Y117955D03*
X64442D03*
Y121892D03*
X62474Y123860D03*
Y125829D03*
X64442Y123860D03*
Y125829D03*
X66411Y102207D03*
Y104175D03*
X68379Y102207D03*
Y104175D03*
X66411Y110081D03*
X68379D03*
Y112049D03*
X66411D03*
X68379Y115986D03*
Y114018D03*
X66411Y115986D03*
Y117955D03*
X68379D03*
X66411Y123860D03*
Y125829D03*
X68379Y123860D03*
Y125829D03*
X72316Y102207D03*
Y104175D03*
X74285Y102207D03*
Y104175D03*
Y106144D03*
Y110081D03*
Y112049D03*
X72316Y114018D03*
X74285D03*
Y115986D03*
Y117955D03*
Y121892D03*
X72316Y123860D03*
Y125829D03*
X74285Y123860D03*
Y125829D03*
X76253Y102207D03*
Y104175D03*
Y106144D03*
Y110081D03*
Y112049D03*
Y114018D03*
Y115986D03*
Y117955D03*
Y121892D03*
Y123860D03*
Y125829D03*
G54D12*
X-6250Y18750D03*
X-250D03*
X1442Y40518D03*
X7442D03*
X42442Y144518D03*
Y152018D03*
X48442Y144518D03*
Y152018D03*
X65442Y145018D03*
X71442D03*
X76558Y26482D03*
Y39982D03*
X82558Y26482D03*
Y39982D03*
X81750Y138250D03*
Y151250D03*
X87750Y138250D03*
Y151250D03*
X97442Y92518D03*
Y98518D03*
Y104518D03*
Y110518D03*
Y116518D03*
Y122518D03*
Y128518D03*
X103442Y92518D03*
Y98518D03*
Y104518D03*
Y110518D03*
Y116518D03*
Y122518D03*
Y128518D03*
X122750Y156750D03*
Y166750D03*
X128750Y46250D03*
X126442Y94018D03*
Y101518D03*
Y141518D03*
Y149018D03*
X128750Y156750D03*
Y166750D03*
X132442Y94018D03*
Y101518D03*
Y141518D03*
Y149018D03*
X134750Y46250D03*
Y156750D03*
Y166750D03*
X177250Y37250D03*
X183250D03*
X228750D03*
Y150750D03*
X234750Y37250D03*
Y150750D03*
Y164250D03*
Y171250D03*
X240750Y164250D03*
Y171250D03*
G54D40*
X293005Y156620D03*
Y164880D03*
X298125Y156620D03*
Y164880D03*
G54D22*
X25010Y25580D03*
X28750Y16920D03*
X32490Y25580D03*
G54D13*
X-7330Y25459D03*
Y28018D03*
Y30577D03*
X1214Y28018D03*
Y25459D03*
Y30577D03*
G54D31*
X69365Y32203D03*
Y29644D03*
Y37321D03*
Y34762D03*
G54D41*
G01X258692Y-148582D02*
X258066Y-148782D01*
X257596Y-149282D01*
X257282Y-149882D01*
X257047Y-150682D01*
X256969Y-151582D01*
X257047Y-152482D01*
X257282Y-153282D01*
X257596Y-153882D01*
X258066Y-154382D01*
X258692Y-154582D01*
X259319Y-154382D01*
X259789Y-153882D01*
X260102Y-153282D01*
X260337Y-152482D01*
X260416Y-151582D01*
X260337Y-150682D01*
X260102Y-149882D01*
X259789Y-149282D01*
X259319Y-148782D01*
X258692Y-148582D01*
G01X264992Y-154582D02*
Y-148582D01*
X264052Y-149782D01*
G01Y-154582D02*
X265932D01*
G01X258367Y-145549D02*
X258834Y-145882D01*
X259359Y-146082D01*
X259826D01*
X260292Y-145882D01*
X260642Y-145549D01*
X260817Y-145082D01*
X260701Y-144616D01*
X260409Y-144216D01*
X259884Y-143949D01*
X259184Y-143816D01*
X258776Y-143549D01*
X258600Y-143082D01*
X258717Y-142616D01*
X259009Y-142282D01*
X259417Y-142082D01*
X259826D01*
X260234Y-142216D01*
X260584Y-142549D01*
G01X263167Y-146082D02*
Y-142082D01*
G01X265617D02*
Y-146082D01*
G01Y-144082D02*
X263167D01*
G01X270359Y-146082D02*
X268026D01*
Y-142082D01*
X270359D01*
G01X269426Y-144016D02*
X268026D01*
G01X275159Y-146082D02*
X272826D01*
Y-142082D01*
X275159D01*
G01X274226Y-144016D02*
X272826D01*
G01X278792Y-142082D02*
Y-146082D01*
G01X277451Y-142082D02*
X280134D01*
G01X258134Y-85082D02*
X259592Y-81082D01*
X261051Y-85082D01*
G01X260526Y-83682D02*
X258659D01*
G01X263109Y-81082D02*
Y-83949D01*
X263342Y-84549D01*
X263809Y-84949D01*
X264392Y-85082D01*
X264976Y-84949D01*
X265442Y-84549D01*
X265676Y-83949D01*
Y-81082D01*
G01X267967Y-84549D02*
X268434Y-84882D01*
X268959Y-85082D01*
X269426D01*
X269892Y-84882D01*
X270242Y-84549D01*
X270417Y-84082D01*
X270301Y-83616D01*
X270009Y-83216D01*
X269484Y-82949D01*
X268784Y-82816D01*
X268376Y-82549D01*
X268200Y-82082D01*
X268317Y-81616D01*
X268609Y-81282D01*
X269017Y-81082D01*
X269426D01*
X269834Y-81216D01*
X270184Y-81549D01*
G01X273992Y-81082D02*
Y-85082D01*
G01X272651Y-81082D02*
X275334D01*
G01X278092D02*
X279492D01*
G01X278792D02*
Y-85082D01*
G01X278092D02*
X279492D01*
G01X282251D02*
Y-81082D01*
X284934Y-85082D01*
Y-81082D01*
G01X288392Y-85216D02*
X288276Y-85149D01*
Y-85016D01*
X288392Y-84949D01*
X288509Y-85016D01*
Y-85149D01*
X288392Y-85216D01*
G01X297992Y-81082D02*
Y-85082D01*
G01X296651Y-81082D02*
X299334D01*
G01X303959Y-85082D02*
X301626D01*
Y-81082D01*
X303959D01*
G01X303026Y-83016D02*
X301626D01*
G01X306367Y-85082D02*
X308817Y-81082D01*
G01X306367D02*
X308817Y-85082D01*
G01X310934D02*
X312392Y-81082D01*
X313851Y-85082D01*
G01X313326Y-83682D02*
X311459D01*
G01X315967Y-84549D02*
X316434Y-84882D01*
X316959Y-85082D01*
X317426D01*
X317892Y-84882D01*
X318242Y-84549D01*
X318417Y-84082D01*
X318301Y-83616D01*
X318009Y-83216D01*
X317484Y-82949D01*
X316784Y-82816D01*
X316376Y-82549D01*
X316200Y-82082D01*
X316317Y-81616D01*
X316609Y-81282D01*
X317017Y-81082D01*
X317426D01*
X317834Y-81216D01*
X318184Y-81549D01*
G01X326676Y-85082D02*
X326792Y-84216D01*
X326967Y-83482D01*
X327200Y-82816D01*
X327492Y-82082D01*
X327959Y-81082D01*
X325626D01*
G01X331592Y-85082D02*
X332000Y-85016D01*
X332467Y-84816D01*
X332759Y-84482D01*
X332876Y-84016D01*
X332759Y-83549D01*
X332409Y-83149D01*
X331884Y-82949D01*
X331300D01*
X330950Y-82816D01*
X330659Y-82482D01*
X330542Y-82016D01*
X330717Y-81549D01*
X331126Y-81216D01*
X331592Y-81082D01*
X332059Y-81216D01*
X332467Y-81549D01*
X332642Y-82016D01*
X332526Y-82482D01*
X332234Y-82816D01*
X331884Y-82949D01*
X331300D01*
X330776Y-83149D01*
X330426Y-83549D01*
X330309Y-84016D01*
X330426Y-84482D01*
X330717Y-84816D01*
X331184Y-85016D01*
X331592Y-85082D01*
G01X336276D02*
X336392Y-84216D01*
X336567Y-83482D01*
X336800Y-82816D01*
X337092Y-82082D01*
X337559Y-81082D01*
X335226D01*
G01X339909Y-84282D02*
X340259Y-84749D01*
X340726Y-85016D01*
X341251Y-85082D01*
X341717Y-85016D01*
X342184Y-84682D01*
X342476Y-84282D01*
X342534Y-83882D01*
X342417Y-83416D01*
X342009Y-83082D01*
X341600Y-82949D01*
X341076D01*
G01X341600D02*
X341950Y-82749D01*
X342242Y-82416D01*
X342359Y-82016D01*
X342242Y-81616D01*
X341950Y-81282D01*
X341426Y-81082D01*
X340900Y-81149D01*
X340376Y-81416D01*
G01X344709Y-84482D02*
X345059Y-84816D01*
X345467Y-85016D01*
X345992Y-85082D01*
X346517Y-84949D01*
X346926Y-84682D01*
X347217Y-84216D01*
X347276Y-83682D01*
X347159Y-83149D01*
X346867Y-82816D01*
X346459Y-82549D01*
X346051Y-82482D01*
X345642Y-82549D01*
X345117Y-82816D01*
X345292Y-81082D01*
X346867D01*
G01X354309D02*
Y-83949D01*
X354542Y-84549D01*
X355009Y-84949D01*
X355592Y-85082D01*
X356176Y-84949D01*
X356642Y-84549D01*
X356876Y-83949D01*
Y-81082D01*
G01X359167Y-84549D02*
X359634Y-84882D01*
X360159Y-85082D01*
X360626D01*
X361092Y-84882D01*
X361442Y-84549D01*
X361617Y-84082D01*
X361501Y-83616D01*
X361209Y-83216D01*
X360684Y-82949D01*
X359984Y-82816D01*
X359576Y-82549D01*
X359400Y-82082D01*
X359517Y-81616D01*
X359809Y-81282D01*
X360217Y-81082D01*
X360626D01*
X361034Y-81216D01*
X361384Y-81549D01*
G01X363734Y-85082D02*
X365192Y-81082D01*
X366651Y-85082D01*
G01X366126Y-83682D02*
X364259D01*
G01X258484Y-76416D02*
X258892Y-75949D01*
X259242Y-75682D01*
X259709Y-75549D01*
X260117Y-75682D01*
X260409Y-75949D01*
X260642Y-76349D01*
X260701Y-76816D01*
X260642Y-77216D01*
X260409Y-77616D01*
X260059Y-77949D01*
X259651Y-78082D01*
X259184Y-77949D01*
X258776Y-77549D01*
X258542Y-76949D01*
X258484Y-76282D01*
X258600Y-75416D01*
X258776Y-74949D01*
X259067Y-74482D01*
X259476Y-74149D01*
X259884Y-74082D01*
X260292Y-74216D01*
X260584Y-74549D01*
G01X263109Y-77482D02*
X263459Y-77816D01*
X263867Y-78016D01*
X264392Y-78082D01*
X264917Y-77949D01*
X265326Y-77682D01*
X265617Y-77216D01*
X265676Y-76682D01*
X265559Y-76149D01*
X265267Y-75816D01*
X264859Y-75549D01*
X264451Y-75482D01*
X264042Y-75549D01*
X263517Y-75816D01*
X263692Y-74082D01*
X265267D01*
G01X269192D02*
X268726Y-74216D01*
X268376Y-74549D01*
X268142Y-74949D01*
X267967Y-75482D01*
X267909Y-76082D01*
X267967Y-76682D01*
X268142Y-77216D01*
X268376Y-77616D01*
X268726Y-77949D01*
X269192Y-78082D01*
X269659Y-77949D01*
X270009Y-77616D01*
X270242Y-77216D01*
X270417Y-76682D01*
X270476Y-76082D01*
X270417Y-75482D01*
X270242Y-74949D01*
X270009Y-74549D01*
X269659Y-74216D01*
X269192Y-74082D01*
G01X273992Y-78082D02*
Y-74082D01*
X273292Y-74882D01*
G01Y-78082D02*
X274692D01*
G01X281842Y-74082D02*
X282659Y-78082D01*
X283592Y-74082D01*
X284526Y-78082D01*
X285342Y-74082D01*
G01X287692D02*
X289092D01*
G01X288392D02*
Y-78082D01*
G01X287692D02*
X289092D01*
G01X292026Y-74082D02*
Y-78082D01*
X294359D01*
G01X296826Y-74082D02*
Y-78082D01*
X299159D01*
G01X302092Y-74082D02*
X303492D01*
G01X302792D02*
Y-78082D01*
G01X302092D02*
X303492D01*
G01X306134D02*
X307592Y-74082D01*
X309051Y-78082D01*
G01X308526Y-76682D02*
X306659D01*
G01X310876Y-78082D02*
Y-74082D01*
X312392Y-77416D01*
X313909Y-74082D01*
Y-78082D01*
G01X323276Y-74416D02*
X322926Y-74216D01*
X322517Y-74082D01*
X322051D01*
X321526Y-74282D01*
X321117Y-74616D01*
X320826Y-75016D01*
X320592Y-75682D01*
X320534Y-76282D01*
X320651Y-76882D01*
X320826Y-77282D01*
X321176Y-77682D01*
X321584Y-77949D01*
X321992Y-78082D01*
X322400D01*
X322809Y-77949D01*
X323159Y-77749D01*
X323451Y-77482D01*
G01X325334Y-78082D02*
X326792Y-74082D01*
X328251Y-78082D01*
G01X327726Y-76682D02*
X325859D01*
G01X330251Y-78082D02*
Y-74082D01*
X332934Y-78082D01*
Y-74082D01*
G01X335051Y-78082D02*
Y-74082D01*
X337734Y-78082D01*
Y-74082D01*
G01X341192Y-78082D02*
X340726Y-78016D01*
X340317Y-77749D01*
X339967Y-77349D01*
X339734Y-76882D01*
X339617Y-76349D01*
Y-75816D01*
X339734Y-75282D01*
X339967Y-74816D01*
X340317Y-74416D01*
X340726Y-74149D01*
X341192Y-74082D01*
X341659Y-74149D01*
X342067Y-74416D01*
X342417Y-74816D01*
X342651Y-75282D01*
X342767Y-75816D01*
Y-76349D01*
X342651Y-76882D01*
X342417Y-77349D01*
X342067Y-77749D01*
X341659Y-78016D01*
X341192Y-78082D01*
G01X344651D02*
Y-74082D01*
X347334Y-78082D01*
Y-74082D01*
G01X354309Y-78082D02*
Y-74082D01*
X355476D01*
X355942Y-74282D01*
X356292Y-74549D01*
X356584Y-74949D01*
X356817Y-75416D01*
X356876Y-76082D01*
X356817Y-76749D01*
X356584Y-77216D01*
X356292Y-77616D01*
X355942Y-77882D01*
X355476Y-78082D01*
X354309D01*
G01X359226D02*
Y-74082D01*
X360684D01*
X361150Y-74282D01*
X361442Y-74549D01*
X361559Y-75082D01*
X361442Y-75616D01*
X361092Y-75949D01*
X360684Y-76149D01*
X359226D01*
G01X360684D02*
X361559Y-78082D01*
G01X364492Y-74082D02*
X365892D01*
G01X365192D02*
Y-78082D01*
G01X364492D02*
X365892D01*
G01X368534Y-74082D02*
X369992Y-78082D01*
X371451Y-74082D01*
G01X375959Y-78082D02*
X373626D01*
Y-74082D01*
X375959D01*
G01X375026Y-76016D02*
X373626D01*
G01X382642Y-74082D02*
X383459Y-78082D01*
X384392Y-74082D01*
X385326Y-78082D01*
X386142Y-74082D01*
G01X390359Y-78082D02*
X388026D01*
Y-74082D01*
X390359D01*
G01X389426Y-76016D02*
X388026D01*
G01X392767Y-77549D02*
X393234Y-77882D01*
X393759Y-78082D01*
X394226D01*
X394692Y-77882D01*
X395042Y-77549D01*
X395217Y-77082D01*
X395101Y-76616D01*
X394809Y-76216D01*
X394284Y-75949D01*
X393584Y-75816D01*
X393176Y-75549D01*
X393000Y-75082D01*
X393117Y-74616D01*
X393409Y-74282D01*
X393817Y-74082D01*
X394226D01*
X394634Y-74216D01*
X394984Y-74549D01*
G01X398792Y-74082D02*
Y-78082D01*
G01X397451Y-74082D02*
X400134D01*
G01X258496Y-69082D02*
Y-61582D01*
X262789Y-69082D01*
Y-61582D01*
G01X266182Y-69082D02*
X270102Y-61582D01*
G01X266182D02*
X270102Y-69082D01*
G01X273776D02*
Y-61582D01*
X276016D01*
X276762Y-61957D01*
X277322Y-62832D01*
X277509Y-63832D01*
X277322Y-64832D01*
X276856Y-65582D01*
X276016Y-65958D01*
X273776D01*
G01X288682Y-68082D02*
X289429Y-68707D01*
X290269Y-69082D01*
X291016D01*
X291762Y-68707D01*
X292322Y-68082D01*
X292602Y-67207D01*
X292416Y-66332D01*
X291949Y-65582D01*
X291109Y-65082D01*
X289989Y-64832D01*
X289336Y-64332D01*
X289055Y-63457D01*
X289242Y-62582D01*
X289709Y-61957D01*
X290362Y-61582D01*
X291016D01*
X291669Y-61832D01*
X292229Y-62457D01*
G01X300009Y-69082D02*
X296276D01*
Y-61582D01*
X300009D01*
G01X298516Y-65207D02*
X296276D01*
G01X303216Y-69082D02*
Y-61582D01*
X305642Y-67832D01*
X308069Y-61582D01*
Y-69082D01*
G01X312022Y-61582D02*
X314262D01*
G01X313142D02*
Y-69082D01*
G01X312022D02*
X314262D01*
G01X322696Y-62207D02*
X322136Y-61832D01*
X321482Y-61582D01*
X320736D01*
X319895Y-61957D01*
X319242Y-62582D01*
X318776Y-63332D01*
X318402Y-64582D01*
X318309Y-65707D01*
X318496Y-66832D01*
X318776Y-67582D01*
X319336Y-68332D01*
X319989Y-68832D01*
X320642Y-69082D01*
X321296D01*
X321949Y-68832D01*
X322509Y-68457D01*
X322976Y-67958D01*
G01X328142Y-69082D02*
X327395Y-68957D01*
X326742Y-68457D01*
X326182Y-67707D01*
X325809Y-66832D01*
X325622Y-65832D01*
Y-64832D01*
X325809Y-63832D01*
X326182Y-62957D01*
X326742Y-62207D01*
X327395Y-61707D01*
X328142Y-61582D01*
X328889Y-61707D01*
X329542Y-62207D01*
X330102Y-62957D01*
X330476Y-63832D01*
X330662Y-64832D01*
Y-65832D01*
X330476Y-66832D01*
X330102Y-67707D01*
X329542Y-68457D01*
X328889Y-68957D01*
X328142Y-69082D01*
G01X333496D02*
Y-61582D01*
X337789Y-69082D01*
Y-61582D01*
G01X341089Y-69082D02*
Y-61582D01*
X342955D01*
X343702Y-61957D01*
X344262Y-62457D01*
X344729Y-63207D01*
X345102Y-64083D01*
X345196Y-65332D01*
X345102Y-66582D01*
X344729Y-67457D01*
X344262Y-68208D01*
X343702Y-68707D01*
X342955Y-69082D01*
X341089D01*
G01X348589Y-61582D02*
Y-66957D01*
X348962Y-68082D01*
X349709Y-68832D01*
X350642Y-69082D01*
X351576Y-68832D01*
X352322Y-68082D01*
X352696Y-66957D01*
Y-61582D01*
G01X360196Y-62207D02*
X359636Y-61832D01*
X358982Y-61582D01*
X358236D01*
X357395Y-61957D01*
X356742Y-62582D01*
X356276Y-63332D01*
X355902Y-64582D01*
X355809Y-65707D01*
X355996Y-66832D01*
X356276Y-67582D01*
X356836Y-68332D01*
X357489Y-68832D01*
X358142Y-69082D01*
X358796D01*
X359449Y-68832D01*
X360009Y-68457D01*
X360476Y-67958D01*
G01X365642Y-61582D02*
Y-69082D01*
G01X363496Y-61582D02*
X367789D01*
G01X373142Y-69082D02*
X372395Y-68957D01*
X371742Y-68457D01*
X371182Y-67707D01*
X370809Y-66832D01*
X370622Y-65832D01*
Y-64832D01*
X370809Y-63832D01*
X371182Y-62957D01*
X371742Y-62207D01*
X372395Y-61707D01*
X373142Y-61582D01*
X373889Y-61707D01*
X374542Y-62207D01*
X375102Y-62957D01*
X375476Y-63832D01*
X375662Y-64832D01*
Y-65832D01*
X375476Y-66832D01*
X375102Y-67707D01*
X374542Y-68457D01*
X373889Y-68957D01*
X373142Y-69082D01*
G01X378776D02*
Y-61582D01*
X381109D01*
X381856Y-61957D01*
X382322Y-62457D01*
X382509Y-63457D01*
X382322Y-64457D01*
X381762Y-65082D01*
X381109Y-65457D01*
X378776D01*
G01X381109D02*
X382509Y-69082D01*
G01X386182Y-68082D02*
X386929Y-68707D01*
X387769Y-69082D01*
X388516D01*
X389262Y-68707D01*
X389822Y-68082D01*
X390102Y-67207D01*
X389916Y-66332D01*
X389449Y-65582D01*
X388609Y-65082D01*
X387489Y-64832D01*
X386836Y-64332D01*
X386555Y-63457D01*
X386742Y-62582D01*
X387209Y-61957D01*
X387862Y-61582D01*
X388516D01*
X389169Y-61832D01*
X389729Y-62457D01*
G01X264251Y-135082D02*
Y-131082D01*
X266934Y-135082D01*
Y-131082D01*
G01X269167Y-135082D02*
X271617Y-131082D01*
G01X269167D02*
X271617Y-135082D01*
G01X274026D02*
Y-131082D01*
X275426D01*
X275892Y-131282D01*
X276242Y-131749D01*
X276359Y-132282D01*
X276242Y-132816D01*
X275951Y-133216D01*
X275426Y-133416D01*
X274026D01*
G01X279992Y-135216D02*
X279876Y-135149D01*
Y-135016D01*
X279992Y-134949D01*
X280109Y-135016D01*
Y-135149D01*
X279992Y-135216D01*
G01X266592Y-127082D02*
X266126Y-127016D01*
X265717Y-126749D01*
X265367Y-126349D01*
X265134Y-125882D01*
X265017Y-125349D01*
Y-124816D01*
X265134Y-124282D01*
X265367Y-123816D01*
X265717Y-123416D01*
X266126Y-123149D01*
X266592Y-123082D01*
X267059Y-123149D01*
X267467Y-123416D01*
X267817Y-123816D01*
X268051Y-124282D01*
X268167Y-124816D01*
Y-125349D01*
X268051Y-125882D01*
X267817Y-126349D01*
X267467Y-126749D01*
X267059Y-127016D01*
X266592Y-127082D01*
G01X270226D02*
Y-123082D01*
X271684D01*
X272150Y-123282D01*
X272442Y-123549D01*
X272559Y-124082D01*
X272442Y-124616D01*
X272092Y-124949D01*
X271684Y-125149D01*
X270226D01*
G01X271684D02*
X272559Y-127082D01*
G01X280292Y-123082D02*
X281692D01*
G01X280992D02*
Y-127082D01*
G01X280292D02*
X281692D01*
G01X284451D02*
Y-123082D01*
X287134Y-127082D01*
Y-123082D01*
G01X294226Y-127082D02*
Y-123082D01*
X295626D01*
X296092Y-123282D01*
X296442Y-123749D01*
X296559Y-124282D01*
X296442Y-124816D01*
X296150Y-125216D01*
X295626Y-125416D01*
X294226D01*
G01X298734Y-127082D02*
X300192Y-123082D01*
X301651Y-127082D01*
G01X301126Y-125682D02*
X299259D01*
G01X303826Y-127082D02*
Y-123082D01*
X305284D01*
X305751Y-123282D01*
X306042Y-123549D01*
X306159Y-124082D01*
X306042Y-124616D01*
X305692Y-124949D01*
X305284Y-125149D01*
X303826D01*
G01X305284D02*
X306159Y-127082D01*
G01X309792Y-123082D02*
Y-127082D01*
G01X308451Y-123082D02*
X311134D01*
G01X317642D02*
X318459Y-127082D01*
X319392Y-123082D01*
X320326Y-127082D01*
X321142Y-123082D01*
G01X323492D02*
X324892D01*
G01X324192D02*
Y-127082D01*
G01X323492D02*
X324892D01*
G01X328992Y-123082D02*
Y-127082D01*
G01X327651Y-123082D02*
X330334D01*
G01X332567Y-127082D02*
Y-123082D01*
G01X335017D02*
Y-127082D01*
G01Y-125082D02*
X332567D01*
G01X338592Y-127082D02*
X338126Y-127016D01*
X337717Y-126749D01*
X337367Y-126349D01*
X337134Y-125882D01*
X337017Y-125349D01*
Y-124816D01*
X337134Y-124282D01*
X337367Y-123816D01*
X337717Y-123416D01*
X338126Y-123149D01*
X338592Y-123082D01*
X339059Y-123149D01*
X339467Y-123416D01*
X339817Y-123816D01*
X340051Y-124282D01*
X340167Y-124816D01*
Y-125349D01*
X340051Y-125882D01*
X339817Y-126349D01*
X339467Y-126749D01*
X339059Y-127016D01*
X338592Y-127082D01*
G01X342109Y-123082D02*
Y-125949D01*
X342342Y-126549D01*
X342809Y-126949D01*
X343392Y-127082D01*
X343976Y-126949D01*
X344442Y-126549D01*
X344676Y-125949D01*
Y-123082D01*
G01X348192D02*
Y-127082D01*
G01X346851Y-123082D02*
X349534D01*
G01X357792D02*
Y-127082D01*
G01X356451Y-123082D02*
X359134D01*
G01X361367Y-127082D02*
Y-123082D01*
G01X363817D02*
Y-127082D01*
G01Y-125082D02*
X361367D01*
G01X368559Y-127082D02*
X366226D01*
Y-123082D01*
X368559D01*
G01X367626Y-125016D02*
X366226D01*
G01X378276Y-123416D02*
X377926Y-123216D01*
X377517Y-123082D01*
X377051D01*
X376526Y-123282D01*
X376117Y-123616D01*
X375826Y-124016D01*
X375592Y-124682D01*
X375534Y-125282D01*
X375651Y-125882D01*
X375826Y-126282D01*
X376176Y-126682D01*
X376584Y-126949D01*
X376992Y-127082D01*
X377400D01*
X377809Y-126949D01*
X378159Y-126749D01*
X378451Y-126482D01*
G01X381792Y-127082D02*
X381326Y-127016D01*
X380917Y-126749D01*
X380567Y-126349D01*
X380334Y-125882D01*
X380217Y-125349D01*
Y-124816D01*
X380334Y-124282D01*
X380567Y-123816D01*
X380917Y-123416D01*
X381326Y-123149D01*
X381792Y-123082D01*
X382259Y-123149D01*
X382667Y-123416D01*
X383017Y-123816D01*
X383251Y-124282D01*
X383367Y-124816D01*
Y-125349D01*
X383251Y-125882D01*
X383017Y-126349D01*
X382667Y-126749D01*
X382259Y-127016D01*
X381792Y-127082D01*
G01X385251D02*
Y-123082D01*
X387934Y-127082D01*
Y-123082D01*
G01X390167Y-126549D02*
X390634Y-126882D01*
X391159Y-127082D01*
X391626D01*
X392092Y-126882D01*
X392442Y-126549D01*
X392617Y-126082D01*
X392501Y-125616D01*
X392209Y-125216D01*
X391684Y-124949D01*
X390984Y-124816D01*
X390576Y-124549D01*
X390400Y-124082D01*
X390517Y-123616D01*
X390809Y-123282D01*
X391217Y-123082D01*
X391626D01*
X392034Y-123216D01*
X392384Y-123549D01*
G01X397359Y-127082D02*
X395026D01*
Y-123082D01*
X397359D01*
G01X396426Y-125016D02*
X395026D01*
G01X399651Y-127082D02*
Y-123082D01*
X402334Y-127082D01*
Y-123082D01*
G01X405792D02*
Y-127082D01*
G01X404451Y-123082D02*
X407134D01*
G01X415392Y-127082D02*
X414926Y-127016D01*
X414517Y-126749D01*
X414167Y-126349D01*
X413934Y-125882D01*
X413817Y-125349D01*
Y-124816D01*
X413934Y-124282D01*
X414167Y-123816D01*
X414517Y-123416D01*
X414926Y-123149D01*
X415392Y-123082D01*
X415859Y-123149D01*
X416267Y-123416D01*
X416617Y-123816D01*
X416851Y-124282D01*
X416967Y-124816D01*
Y-125349D01*
X416851Y-125882D01*
X416617Y-126349D01*
X416267Y-126749D01*
X415859Y-127016D01*
X415392Y-127082D01*
G01X419084D02*
Y-123082D01*
X421301D01*
G01X420484Y-125016D02*
X419084D01*
G01X265426Y-119082D02*
Y-115082D01*
X266826D01*
X267292Y-115282D01*
X267642Y-115749D01*
X267759Y-116282D01*
X267642Y-116816D01*
X267350Y-117216D01*
X266826Y-117416D01*
X265426D01*
G01X270226Y-119082D02*
Y-115082D01*
X271684D01*
X272150Y-115282D01*
X272442Y-115549D01*
X272559Y-116082D01*
X272442Y-116616D01*
X272092Y-116949D01*
X271684Y-117149D01*
X270226D01*
G01X271684D02*
X272559Y-119082D01*
G01X276192D02*
X275726Y-119016D01*
X275317Y-118749D01*
X274967Y-118349D01*
X274734Y-117882D01*
X274617Y-117349D01*
Y-116816D01*
X274734Y-116282D01*
X274967Y-115816D01*
X275317Y-115416D01*
X275726Y-115149D01*
X276192Y-115082D01*
X276659Y-115149D01*
X277067Y-115416D01*
X277417Y-115816D01*
X277651Y-116282D01*
X277767Y-116816D01*
Y-117349D01*
X277651Y-117882D01*
X277417Y-118349D01*
X277067Y-118749D01*
X276659Y-119016D01*
X276192Y-119082D01*
G01X282276Y-115416D02*
X281926Y-115216D01*
X281517Y-115082D01*
X281051D01*
X280526Y-115282D01*
X280117Y-115616D01*
X279826Y-116016D01*
X279592Y-116682D01*
X279534Y-117282D01*
X279651Y-117882D01*
X279826Y-118282D01*
X280176Y-118682D01*
X280584Y-118949D01*
X280992Y-119082D01*
X281401D01*
X281809Y-118949D01*
X282159Y-118749D01*
X282451Y-118482D01*
G01X284509Y-115082D02*
Y-117949D01*
X284742Y-118549D01*
X285209Y-118949D01*
X285792Y-119082D01*
X286376Y-118949D01*
X286842Y-118549D01*
X287076Y-117949D01*
Y-115082D01*
G01X289426Y-119082D02*
Y-115082D01*
X290884D01*
X291350Y-115282D01*
X291642Y-115549D01*
X291759Y-116082D01*
X291642Y-116616D01*
X291292Y-116949D01*
X290884Y-117149D01*
X289426D01*
G01X290884D02*
X291759Y-119082D01*
G01X296559D02*
X294226D01*
Y-115082D01*
X296559D01*
G01X295626Y-117016D02*
X294226D01*
G01X298676Y-119082D02*
Y-115082D01*
X300192Y-118416D01*
X301709Y-115082D01*
Y-119082D01*
G01X306159D02*
X303826D01*
Y-115082D01*
X306159D01*
G01X305226Y-117016D02*
X303826D01*
G01X308451Y-119082D02*
Y-115082D01*
X311134Y-119082D01*
Y-115082D01*
G01X314592D02*
Y-119082D01*
G01X313251Y-115082D02*
X315934D01*
G01X324192Y-119082D02*
X323726Y-119016D01*
X323317Y-118749D01*
X322967Y-118349D01*
X322734Y-117882D01*
X322617Y-117349D01*
Y-116816D01*
X322734Y-116282D01*
X322967Y-115816D01*
X323317Y-115416D01*
X323726Y-115149D01*
X324192Y-115082D01*
X324659Y-115149D01*
X325067Y-115416D01*
X325417Y-115816D01*
X325651Y-116282D01*
X325767Y-116816D01*
Y-117349D01*
X325651Y-117882D01*
X325417Y-118349D01*
X325067Y-118749D01*
X324659Y-119016D01*
X324192Y-119082D01*
G01X327826D02*
Y-115082D01*
X329284D01*
X329750Y-115282D01*
X330042Y-115549D01*
X330159Y-116082D01*
X330042Y-116616D01*
X329692Y-116949D01*
X329284Y-117149D01*
X327826D01*
G01X329284D02*
X330159Y-119082D01*
G01X337076D02*
Y-115082D01*
X338592Y-118416D01*
X340109Y-115082D01*
Y-119082D01*
G01X341934D02*
X343392Y-115082D01*
X344851Y-119082D01*
G01X344326Y-117682D02*
X342459D01*
G01X346851Y-119082D02*
Y-115082D01*
X349534Y-119082D01*
Y-115082D01*
G01X351709D02*
Y-117949D01*
X351942Y-118549D01*
X352409Y-118949D01*
X352992Y-119082D01*
X353576Y-118949D01*
X354042Y-118549D01*
X354276Y-117949D01*
Y-115082D01*
G01X356684Y-119082D02*
Y-115082D01*
X358901D01*
G01X358084Y-117016D02*
X356684D01*
G01X361134Y-119082D02*
X362592Y-115082D01*
X364051Y-119082D01*
G01X363526Y-117682D02*
X361659D01*
G01X368676Y-115416D02*
X368326Y-115216D01*
X367917Y-115082D01*
X367451D01*
X366926Y-115282D01*
X366517Y-115616D01*
X366226Y-116016D01*
X365992Y-116682D01*
X365934Y-117282D01*
X366051Y-117882D01*
X366226Y-118282D01*
X366576Y-118682D01*
X366984Y-118949D01*
X367392Y-119082D01*
X367800D01*
X368209Y-118949D01*
X368559Y-118749D01*
X368851Y-118482D01*
G01X372192Y-115082D02*
Y-119082D01*
G01X370851Y-115082D02*
X373534D01*
G01X375709D02*
Y-117949D01*
X375942Y-118549D01*
X376409Y-118949D01*
X376992Y-119082D01*
X377576Y-118949D01*
X378042Y-118549D01*
X378276Y-117949D01*
Y-115082D01*
G01X380626Y-119082D02*
Y-115082D01*
X382084D01*
X382550Y-115282D01*
X382842Y-115549D01*
X382959Y-116082D01*
X382842Y-116616D01*
X382492Y-116949D01*
X382084Y-117149D01*
X380626D01*
G01X382084D02*
X382959Y-119082D01*
G01X387759D02*
X385426D01*
Y-115082D01*
X387759D01*
G01X386826Y-117016D02*
X385426D01*
G01X395492Y-115082D02*
X396892D01*
G01X396192D02*
Y-119082D01*
G01X395492D02*
X396892D01*
G01X399651D02*
Y-115082D01*
X402334Y-119082D01*
Y-115082D01*
G01X408842D02*
X409659Y-119082D01*
X410592Y-115082D01*
X411526Y-119082D01*
X412342Y-115082D01*
G01X414167Y-119082D02*
Y-115082D01*
G01X416617D02*
Y-119082D01*
G01Y-117082D02*
X414167D01*
G01X420192Y-119082D02*
X419726Y-119016D01*
X419317Y-118749D01*
X418967Y-118349D01*
X418734Y-117882D01*
X418617Y-117349D01*
Y-116816D01*
X418734Y-116282D01*
X418967Y-115816D01*
X419317Y-115416D01*
X419726Y-115149D01*
X420192Y-115082D01*
X420659Y-115149D01*
X421067Y-115416D01*
X421417Y-115816D01*
X421651Y-116282D01*
X421767Y-116816D01*
Y-117349D01*
X421651Y-117882D01*
X421417Y-118349D01*
X421067Y-118749D01*
X420659Y-119016D01*
X420192Y-119082D01*
G01X423826Y-115082D02*
Y-119082D01*
X426159D01*
G01X430959D02*
X428626D01*
Y-115082D01*
X430959D01*
G01X430026Y-117016D02*
X428626D01*
G01X266059Y-108949D02*
X266292Y-108749D01*
X266467Y-108416D01*
X266584Y-107949D01*
X266467Y-107549D01*
X266234Y-107282D01*
X265826Y-107082D01*
X264251D01*
Y-111082D01*
X266176D01*
X266584Y-110816D01*
X266817Y-110416D01*
X266934Y-109949D01*
X266817Y-109482D01*
X266467Y-109082D01*
X266059Y-108949D01*
X264251D01*
G01X271559Y-111082D02*
X269226D01*
Y-107082D01*
X271559D01*
G01X270626Y-109016D02*
X269226D01*
G01X278709Y-107082D02*
Y-109949D01*
X278942Y-110549D01*
X279409Y-110949D01*
X279992Y-111082D01*
X280576Y-110949D01*
X281042Y-110549D01*
X281276Y-109949D01*
Y-107082D01*
G01X283567Y-110549D02*
X284034Y-110882D01*
X284559Y-111082D01*
X285026D01*
X285492Y-110882D01*
X285842Y-110549D01*
X286017Y-110082D01*
X285901Y-109616D01*
X285609Y-109216D01*
X285084Y-108949D01*
X284384Y-108816D01*
X283976Y-108549D01*
X283801Y-108082D01*
X283917Y-107616D01*
X284209Y-107282D01*
X284617Y-107082D01*
X285026D01*
X285434Y-107216D01*
X285784Y-107549D01*
G01X290759Y-111082D02*
X288426D01*
Y-107082D01*
X290759D01*
G01X289826Y-109016D02*
X288426D01*
G01X293109Y-111082D02*
Y-107082D01*
X294276D01*
X294742Y-107282D01*
X295092Y-107549D01*
X295384Y-107949D01*
X295617Y-108416D01*
X295676Y-109082D01*
X295617Y-109749D01*
X295384Y-110216D01*
X295092Y-110616D01*
X294742Y-110882D01*
X294276Y-111082D01*
X293109D01*
G01X302884D02*
Y-107082D01*
X305101D01*
G01X304284Y-109016D02*
X302884D01*
G01X308792Y-111082D02*
X308326Y-111016D01*
X307917Y-110749D01*
X307567Y-110349D01*
X307334Y-109882D01*
X307217Y-109349D01*
Y-108816D01*
X307334Y-108282D01*
X307567Y-107816D01*
X307917Y-107416D01*
X308326Y-107149D01*
X308792Y-107082D01*
X309259Y-107149D01*
X309667Y-107416D01*
X310017Y-107816D01*
X310251Y-108282D01*
X310367Y-108816D01*
Y-109349D01*
X310251Y-109882D01*
X310017Y-110349D01*
X309667Y-110749D01*
X309259Y-111016D01*
X308792Y-111082D01*
G01X312426D02*
Y-107082D01*
X313884D01*
X314350Y-107282D01*
X314642Y-107549D01*
X314759Y-108082D01*
X314642Y-108616D01*
X314292Y-108949D01*
X313884Y-109149D01*
X312426D01*
G01X313884D02*
X314759Y-111082D01*
G01X324359D02*
X322026D01*
Y-107082D01*
X324359D01*
G01X323426Y-109016D02*
X322026D01*
G01X326651Y-111082D02*
Y-107082D01*
X329334Y-111082D01*
Y-107082D01*
G01X333142Y-109082D02*
X334309D01*
Y-110282D01*
X333959Y-110682D01*
X333551Y-110949D01*
X332967Y-111082D01*
X332384Y-110949D01*
X331976Y-110682D01*
X331626Y-110282D01*
X331392Y-109816D01*
X331276Y-109282D01*
Y-108816D01*
X331392Y-108416D01*
X331626Y-107949D01*
X331976Y-107549D01*
X332326Y-107282D01*
X332792Y-107082D01*
X333200D01*
X333667Y-107216D01*
X334017Y-107482D01*
G01X336892Y-107082D02*
X338292D01*
G01X337592D02*
Y-111082D01*
G01X336892D02*
X338292D01*
G01X341051D02*
Y-107082D01*
X343734Y-111082D01*
Y-107082D01*
G01X348359Y-111082D02*
X346026D01*
Y-107082D01*
X348359D01*
G01X347426Y-109016D02*
X346026D01*
G01X353159Y-111082D02*
X350826D01*
Y-107082D01*
X353159D01*
G01X352226Y-109016D02*
X350826D01*
G01X355626Y-111082D02*
Y-107082D01*
X357084D01*
X357550Y-107282D01*
X357842Y-107549D01*
X357959Y-108082D01*
X357842Y-108616D01*
X357492Y-108949D01*
X357084Y-109149D01*
X355626D01*
G01X357084D02*
X357959Y-111082D01*
G01X360892Y-107082D02*
X362292D01*
G01X361592D02*
Y-111082D01*
G01X360892D02*
X362292D01*
G01X365051D02*
Y-107082D01*
X367734Y-111082D01*
Y-107082D01*
G01X371542Y-109082D02*
X372709D01*
Y-110282D01*
X372359Y-110682D01*
X371950Y-110949D01*
X371367Y-111082D01*
X370784Y-110949D01*
X370376Y-110682D01*
X370026Y-110282D01*
X369792Y-109816D01*
X369676Y-109282D01*
Y-108816D01*
X369792Y-108416D01*
X370026Y-107949D01*
X370376Y-107549D01*
X370726Y-107282D01*
X371192Y-107082D01*
X371600D01*
X372067Y-107216D01*
X372417Y-107482D01*
G01X379509Y-111082D02*
Y-107082D01*
X380676D01*
X381142Y-107282D01*
X381492Y-107549D01*
X381784Y-107949D01*
X382017Y-108416D01*
X382076Y-109082D01*
X382017Y-109749D01*
X381784Y-110216D01*
X381492Y-110616D01*
X381142Y-110882D01*
X380676Y-111082D01*
X379509D01*
G01X386759D02*
X384426D01*
Y-107082D01*
X386759D01*
G01X385826Y-109016D02*
X384426D01*
G01X389167Y-110549D02*
X389634Y-110882D01*
X390159Y-111082D01*
X390626D01*
X391092Y-110882D01*
X391442Y-110549D01*
X391617Y-110082D01*
X391501Y-109616D01*
X391209Y-109216D01*
X390684Y-108949D01*
X389984Y-108816D01*
X389576Y-108549D01*
X389401Y-108082D01*
X389517Y-107616D01*
X389809Y-107282D01*
X390217Y-107082D01*
X390626D01*
X391034Y-107216D01*
X391384Y-107549D01*
G01X394492Y-107082D02*
X395892D01*
G01X395192D02*
Y-111082D01*
G01X394492D02*
X395892D01*
G01X400342Y-109082D02*
X401509D01*
Y-110282D01*
X401159Y-110682D01*
X400750Y-110949D01*
X400167Y-111082D01*
X399584Y-110949D01*
X399176Y-110682D01*
X398826Y-110282D01*
X398592Y-109816D01*
X398476Y-109282D01*
Y-108816D01*
X398592Y-108416D01*
X398826Y-107949D01*
X399176Y-107549D01*
X399526Y-107282D01*
X399992Y-107082D01*
X400400D01*
X400867Y-107216D01*
X401217Y-107482D01*
G01X403451Y-111082D02*
Y-107082D01*
X406134Y-111082D01*
Y-107082D01*
G01X264426Y-103082D02*
Y-99082D01*
X265826D01*
X266292Y-99282D01*
X266642Y-99749D01*
X266759Y-100282D01*
X266642Y-100816D01*
X266350Y-101216D01*
X265826Y-101416D01*
X264426D01*
G01X269226Y-103082D02*
Y-99082D01*
X270684D01*
X271150Y-99282D01*
X271442Y-99549D01*
X271559Y-100082D01*
X271442Y-100616D01*
X271092Y-100949D01*
X270684Y-101149D01*
X269226D01*
G01X270684D02*
X271559Y-103082D01*
G01X275192D02*
X274726Y-103016D01*
X274317Y-102749D01*
X273967Y-102349D01*
X273734Y-101882D01*
X273617Y-101349D01*
Y-100816D01*
X273734Y-100282D01*
X273967Y-99816D01*
X274317Y-99416D01*
X274726Y-99149D01*
X275192Y-99082D01*
X275659Y-99149D01*
X276067Y-99416D01*
X276417Y-99816D01*
X276651Y-100282D01*
X276767Y-100816D01*
Y-101349D01*
X276651Y-101882D01*
X276417Y-102349D01*
X276067Y-102749D01*
X275659Y-103016D01*
X275192Y-103082D01*
G01X278826D02*
Y-99082D01*
X280226D01*
X280692Y-99282D01*
X281042Y-99749D01*
X281159Y-100282D01*
X281042Y-100816D01*
X280751Y-101216D01*
X280226Y-101416D01*
X278826D01*
G01X283626Y-103082D02*
Y-99082D01*
X285084D01*
X285550Y-99282D01*
X285842Y-99549D01*
X285959Y-100082D01*
X285842Y-100616D01*
X285492Y-100949D01*
X285084Y-101149D01*
X283626D01*
G01X285084D02*
X285959Y-103082D01*
G01X288892Y-99082D02*
X290292D01*
G01X289592D02*
Y-103082D01*
G01X288892D02*
X290292D01*
G01X295559D02*
X293226D01*
Y-99082D01*
X295559D01*
G01X294626Y-101016D02*
X293226D01*
G01X299192Y-99082D02*
Y-103082D01*
G01X297851Y-99082D02*
X300534D01*
G01X302534Y-103082D02*
X303992Y-99082D01*
X305451Y-103082D01*
G01X304926Y-101682D02*
X303059D01*
G01X307626Y-103082D02*
Y-99082D01*
X309084D01*
X309550Y-99282D01*
X309842Y-99549D01*
X309959Y-100082D01*
X309842Y-100616D01*
X309492Y-100949D01*
X309084Y-101149D01*
X307626D01*
G01X309084D02*
X309959Y-103082D01*
G01X313592D02*
Y-101282D01*
X312426Y-99082D01*
G01X314759D02*
X313592Y-101282D01*
G01X323192Y-99082D02*
Y-103082D01*
G01X321851Y-99082D02*
X324534D01*
G01X327992Y-103082D02*
X327526Y-103016D01*
X327117Y-102749D01*
X326767Y-102349D01*
X326534Y-101882D01*
X326417Y-101349D01*
Y-100816D01*
X326534Y-100282D01*
X326767Y-99816D01*
X327117Y-99416D01*
X327526Y-99149D01*
X327992Y-99082D01*
X328459Y-99149D01*
X328867Y-99416D01*
X329217Y-99816D01*
X329451Y-100282D01*
X329567Y-100816D01*
Y-101349D01*
X329451Y-101882D01*
X329217Y-102349D01*
X328867Y-102749D01*
X328459Y-103016D01*
X327992Y-103082D01*
G01X336251D02*
Y-99082D01*
X338934Y-103082D01*
Y-99082D01*
G01X341167Y-103082D02*
X343617Y-99082D01*
G01X341167D02*
X343617Y-103082D01*
G01X346026D02*
Y-99082D01*
X347426D01*
X347892Y-99282D01*
X348242Y-99749D01*
X348359Y-100282D01*
X348242Y-100816D01*
X347950Y-101216D01*
X347426Y-101416D01*
X346026D01*
G01X355334Y-103082D02*
X356792Y-99082D01*
X358251Y-103082D01*
G01X357726Y-101682D02*
X355859D01*
G01X360251Y-103082D02*
Y-99082D01*
X362934Y-103082D01*
Y-99082D01*
G01X365109Y-103082D02*
Y-99082D01*
X366276D01*
X366742Y-99282D01*
X367092Y-99549D01*
X367384Y-99949D01*
X367617Y-100416D01*
X367676Y-101082D01*
X367617Y-101749D01*
X367384Y-102216D01*
X367092Y-102616D01*
X366742Y-102882D01*
X366276Y-103082D01*
X365109D01*
G01X374767Y-102549D02*
X375234Y-102882D01*
X375759Y-103082D01*
X376226D01*
X376692Y-102882D01*
X377042Y-102549D01*
X377217Y-102082D01*
X377101Y-101616D01*
X376809Y-101216D01*
X376284Y-100949D01*
X375584Y-100816D01*
X375176Y-100549D01*
X375000Y-100082D01*
X375117Y-99616D01*
X375409Y-99282D01*
X375817Y-99082D01*
X376226D01*
X376634Y-99216D01*
X376984Y-99549D01*
G01X379567Y-103082D02*
Y-99082D01*
G01X382017D02*
Y-103082D01*
G01Y-101082D02*
X379567D01*
G01X384134Y-103082D02*
X385592Y-99082D01*
X387051Y-103082D01*
G01X386526Y-101682D02*
X384659D01*
G01X389226Y-99082D02*
Y-103082D01*
X391559D01*
G01X394026Y-99082D02*
Y-103082D01*
X396359D01*
G01X403451D02*
Y-99082D01*
X406134Y-103082D01*
Y-99082D01*
G01X409592Y-103082D02*
X409126Y-103016D01*
X408717Y-102749D01*
X408367Y-102349D01*
X408134Y-101882D01*
X408017Y-101349D01*
Y-100816D01*
X408134Y-100282D01*
X408367Y-99816D01*
X408717Y-99416D01*
X409126Y-99149D01*
X409592Y-99082D01*
X410059Y-99149D01*
X410467Y-99416D01*
X410817Y-99816D01*
X411051Y-100282D01*
X411167Y-100816D01*
Y-101349D01*
X411051Y-101882D01*
X410817Y-102349D01*
X410467Y-102749D01*
X410059Y-103016D01*
X409592Y-103082D01*
G01X414392Y-99082D02*
Y-103082D01*
G01X413051Y-99082D02*
X415734D01*
G01X265592Y-91082D02*
Y-95082D01*
G01X264251Y-91082D02*
X266934D01*
G01X269167Y-95082D02*
Y-91082D01*
G01X271617D02*
Y-95082D01*
G01Y-93082D02*
X269167D01*
G01X274492Y-91082D02*
X275892D01*
G01X275192D02*
Y-95082D01*
G01X274492D02*
X275892D01*
G01X278767Y-94549D02*
X279234Y-94882D01*
X279759Y-95082D01*
X280226D01*
X280692Y-94882D01*
X281042Y-94549D01*
X281217Y-94082D01*
X281101Y-93616D01*
X280809Y-93216D01*
X280284Y-92949D01*
X279584Y-92816D01*
X279176Y-92549D01*
X279000Y-92082D01*
X279117Y-91616D01*
X279409Y-91282D01*
X279817Y-91082D01*
X280226D01*
X280634Y-91216D01*
X280984Y-91549D01*
G01X288309Y-95082D02*
Y-91082D01*
X289476D01*
X289942Y-91282D01*
X290292Y-91549D01*
X290584Y-91949D01*
X290817Y-92416D01*
X290876Y-93082D01*
X290817Y-93749D01*
X290584Y-94216D01*
X290292Y-94616D01*
X289942Y-94882D01*
X289476Y-95082D01*
X288309D01*
G01X294392D02*
X293926Y-95016D01*
X293517Y-94749D01*
X293167Y-94349D01*
X292934Y-93882D01*
X292817Y-93349D01*
Y-92816D01*
X292934Y-92282D01*
X293167Y-91816D01*
X293517Y-91416D01*
X293926Y-91149D01*
X294392Y-91082D01*
X294859Y-91149D01*
X295267Y-91416D01*
X295617Y-91816D01*
X295851Y-92282D01*
X295967Y-92816D01*
Y-93349D01*
X295851Y-93882D01*
X295617Y-94349D01*
X295267Y-94749D01*
X294859Y-95016D01*
X294392Y-95082D01*
G01X300476Y-91416D02*
X300126Y-91216D01*
X299717Y-91082D01*
X299251D01*
X298726Y-91282D01*
X298317Y-91616D01*
X298026Y-92016D01*
X297792Y-92682D01*
X297734Y-93282D01*
X297851Y-93882D01*
X298026Y-94282D01*
X298376Y-94682D01*
X298784Y-94949D01*
X299192Y-95082D01*
X299600D01*
X300009Y-94949D01*
X300359Y-94749D01*
X300651Y-94482D01*
G01X302709Y-91082D02*
Y-93949D01*
X302942Y-94549D01*
X303409Y-94949D01*
X303992Y-95082D01*
X304576Y-94949D01*
X305042Y-94549D01*
X305276Y-93949D01*
Y-91082D01*
G01X307276Y-95082D02*
Y-91082D01*
X308792Y-94416D01*
X310309Y-91082D01*
Y-95082D01*
G01X314759D02*
X312426D01*
Y-91082D01*
X314759D01*
G01X313826Y-93016D02*
X312426D01*
G01X317051Y-95082D02*
Y-91082D01*
X319734Y-95082D01*
Y-91082D01*
G01X323192D02*
Y-95082D01*
G01X321851Y-91082D02*
X324534D01*
G01X334076Y-91416D02*
X333726Y-91216D01*
X333317Y-91082D01*
X332851D01*
X332326Y-91282D01*
X331917Y-91616D01*
X331626Y-92016D01*
X331392Y-92682D01*
X331334Y-93282D01*
X331451Y-93882D01*
X331626Y-94282D01*
X331976Y-94682D01*
X332384Y-94949D01*
X332792Y-95082D01*
X333200D01*
X333609Y-94949D01*
X333959Y-94749D01*
X334251Y-94482D01*
G01X337592Y-95082D02*
X337126Y-95016D01*
X336717Y-94749D01*
X336367Y-94349D01*
X336134Y-93882D01*
X336017Y-93349D01*
Y-92816D01*
X336134Y-92282D01*
X336367Y-91816D01*
X336717Y-91416D01*
X337126Y-91149D01*
X337592Y-91082D01*
X338059Y-91149D01*
X338467Y-91416D01*
X338817Y-91816D01*
X339051Y-92282D01*
X339167Y-92816D01*
Y-93349D01*
X339051Y-93882D01*
X338817Y-94349D01*
X338467Y-94749D01*
X338059Y-95016D01*
X337592Y-95082D01*
G01X341051D02*
Y-91082D01*
X343734Y-95082D01*
Y-91082D01*
G01X347192D02*
Y-95082D01*
G01X345851Y-91082D02*
X348534D01*
G01X350534Y-95082D02*
X351992Y-91082D01*
X353451Y-95082D01*
G01X352926Y-93682D02*
X351059D01*
G01X356092Y-91082D02*
X357492D01*
G01X356792D02*
Y-95082D01*
G01X356092D02*
X357492D01*
G01X360251D02*
Y-91082D01*
X362934Y-95082D01*
Y-91082D01*
G01X365167Y-94549D02*
X365634Y-94882D01*
X366159Y-95082D01*
X366626D01*
X367092Y-94882D01*
X367442Y-94549D01*
X367617Y-94082D01*
X367501Y-93616D01*
X367209Y-93216D01*
X366684Y-92949D01*
X365984Y-92816D01*
X365576Y-92549D01*
X365400Y-92082D01*
X365517Y-91616D01*
X365809Y-91282D01*
X366217Y-91082D01*
X366626D01*
X367034Y-91216D01*
X367384Y-91549D01*
G01X375292Y-91082D02*
X376692D01*
G01X375992D02*
Y-95082D01*
G01X375292D02*
X376692D01*
G01X379451D02*
Y-91082D01*
X382134Y-95082D01*
Y-91082D01*
G01X384484Y-95082D02*
Y-91082D01*
X386701D01*
G01X385884Y-93016D02*
X384484D01*
G01X390392Y-95082D02*
X389926Y-95016D01*
X389517Y-94749D01*
X389167Y-94349D01*
X388934Y-93882D01*
X388817Y-93349D01*
Y-92816D01*
X388934Y-92282D01*
X389167Y-91816D01*
X389517Y-91416D01*
X389926Y-91149D01*
X390392Y-91082D01*
X390859Y-91149D01*
X391267Y-91416D01*
X391617Y-91816D01*
X391851Y-92282D01*
X391967Y-92816D01*
Y-93349D01*
X391851Y-93882D01*
X391617Y-94349D01*
X391267Y-94749D01*
X390859Y-95016D01*
X390392Y-95082D01*
G01X394026D02*
Y-91082D01*
X395484D01*
X395950Y-91282D01*
X396242Y-91549D01*
X396359Y-92082D01*
X396242Y-92616D01*
X395892Y-92949D01*
X395484Y-93149D01*
X394026D01*
G01X395484D02*
X396359Y-95082D01*
G01X398476D02*
Y-91082D01*
X399992Y-94416D01*
X401509Y-91082D01*
Y-95082D01*
G01X403334D02*
X404792Y-91082D01*
X406251Y-95082D01*
G01X405726Y-93682D02*
X403859D01*
G01X409592Y-91082D02*
Y-95082D01*
G01X408251Y-91082D02*
X410934D01*
G01X413692D02*
X415092D01*
G01X414392D02*
Y-95082D01*
G01X413692D02*
X415092D01*
G01X419192D02*
X418726Y-95016D01*
X418317Y-94749D01*
X417967Y-94349D01*
X417734Y-93882D01*
X417617Y-93349D01*
Y-92816D01*
X417734Y-92282D01*
X417967Y-91816D01*
X418317Y-91416D01*
X418726Y-91149D01*
X419192Y-91082D01*
X419659Y-91149D01*
X420067Y-91416D01*
X420417Y-91816D01*
X420651Y-92282D01*
X420767Y-92816D01*
Y-93349D01*
X420651Y-93882D01*
X420417Y-94349D01*
X420067Y-94749D01*
X419659Y-95016D01*
X419192Y-95082D01*
G01X422651D02*
Y-91082D01*
X425334Y-95082D01*
Y-91082D01*
G01X276692Y-154582D02*
X276066Y-154482D01*
X275517Y-154082D01*
X275047Y-153482D01*
X274734Y-152782D01*
X274577Y-151982D01*
Y-151182D01*
X274734Y-150382D01*
X275047Y-149682D01*
X275517Y-149082D01*
X276066Y-148682D01*
X276692Y-148582D01*
X277319Y-148682D01*
X277867Y-149082D01*
X278337Y-149682D01*
X278651Y-150382D01*
X278807Y-151182D01*
Y-151982D01*
X278651Y-152782D01*
X278337Y-153482D01*
X277867Y-154082D01*
X277319Y-154482D01*
X276692Y-154582D01*
G01X281504D02*
Y-148582D01*
X284481D01*
G01X283384Y-151482D02*
X281504D01*
G01X295592Y-154582D02*
Y-148582D01*
X294652Y-149782D01*
G01Y-154582D02*
X296532D01*
G01X301892Y-148582D02*
X301266Y-148782D01*
X300796Y-149282D01*
X300482Y-149882D01*
X300247Y-150682D01*
X300169Y-151582D01*
X300247Y-152482D01*
X300482Y-153282D01*
X300796Y-153882D01*
X301266Y-154382D01*
X301892Y-154582D01*
X302519Y-154382D01*
X302989Y-153882D01*
X303302Y-153282D01*
X303537Y-152482D01*
X303616Y-151582D01*
X303537Y-150682D01*
X303302Y-149882D01*
X302989Y-149282D01*
X302519Y-148782D01*
X301892Y-148582D01*
G01X308126Y-154582D02*
Y-148582D01*
X310006D01*
X310632Y-148882D01*
X311102Y-149582D01*
X311259Y-150382D01*
X311102Y-151182D01*
X310710Y-151782D01*
X310006Y-152082D01*
X308126D01*
G01X314426Y-154582D02*
Y-148582D01*
X316384D01*
X317010Y-148882D01*
X317402Y-149282D01*
X317559Y-150082D01*
X317402Y-150882D01*
X316932Y-151382D01*
X316384Y-151682D01*
X314426D01*
G01X316384D02*
X317559Y-154582D01*
G01X321352Y-148582D02*
X323232D01*
G01X322292D02*
Y-154582D01*
G01X321352D02*
X323232D01*
G01X326556D02*
Y-148582D01*
X328592Y-153582D01*
X330629Y-148582D01*
Y-154582D01*
G01X332934D02*
X334892Y-148582D01*
X336851Y-154582D01*
G01X336146Y-152482D02*
X333639D01*
G01X339626Y-154582D02*
Y-148582D01*
X341584D01*
X342210Y-148882D01*
X342602Y-149282D01*
X342759Y-150082D01*
X342602Y-150882D01*
X342132Y-151382D01*
X341584Y-151682D01*
X339626D01*
G01X341584D02*
X342759Y-154582D01*
G01X347492D02*
Y-151882D01*
X345926Y-148582D01*
G01X349059D02*
X347492Y-151882D01*
G01X358526Y-154582D02*
Y-148582D01*
X360406D01*
X361032Y-148882D01*
X361502Y-149582D01*
X361659Y-150382D01*
X361502Y-151182D01*
X361110Y-151782D01*
X360406Y-152082D01*
X358526D01*
G01X364434Y-154582D02*
X366392Y-148582D01*
X368351Y-154582D01*
G01X367646Y-152482D02*
X365139D01*
G01X371047Y-153782D02*
X371674Y-154282D01*
X372379Y-154582D01*
X373006D01*
X373632Y-154282D01*
X374102Y-153782D01*
X374337Y-153082D01*
X374181Y-152382D01*
X373789Y-151782D01*
X373084Y-151382D01*
X372144Y-151182D01*
X371596Y-150782D01*
X371360Y-150082D01*
X371517Y-149382D01*
X371909Y-148882D01*
X372457Y-148582D01*
X373006D01*
X373554Y-148782D01*
X374024Y-149282D01*
G01X378992Y-148582D02*
Y-154582D01*
G01X377191Y-148582D02*
X380794D01*
G01X386859Y-154582D02*
X383726D01*
Y-148582D01*
X386859D01*
G01X385606Y-151482D02*
X383726D01*
G01X389556Y-154582D02*
Y-148582D01*
X391592Y-153582D01*
X393629Y-148582D01*
Y-154582D01*
G01X395934D02*
X397892Y-148582D01*
X399851Y-154582D01*
G01X399146Y-152482D02*
X396639D01*
G01X402547Y-153782D02*
X403174Y-154282D01*
X403879Y-154582D01*
X404505D01*
X405132Y-154282D01*
X405602Y-153782D01*
X405837Y-153082D01*
X405681Y-152382D01*
X405289Y-151782D01*
X404584Y-151382D01*
X403644Y-151182D01*
X403096Y-150782D01*
X402860Y-150082D01*
X403017Y-149382D01*
X403409Y-148882D01*
X403957Y-148582D01*
X404505D01*
X405054Y-148782D01*
X405524Y-149282D01*
G01X408769Y-154582D02*
Y-148582D01*
G01X411745D02*
X408769Y-152282D01*
G01X412216Y-154582D02*
X410100Y-150582D01*
G01X308484Y-146082D02*
Y-142082D01*
X310701D01*
G01X309884Y-144016D02*
X308484D01*
G01X313692Y-142082D02*
X315092D01*
G01X314392D02*
Y-146082D01*
G01X313692D02*
X315092D01*
G01X318026Y-142082D02*
Y-146082D01*
X320359D01*
G01X322476D02*
Y-142082D01*
X323992Y-145416D01*
X325509Y-142082D01*
Y-146082D01*
G01X433309D02*
Y-142082D01*
X434476D01*
X434942Y-142282D01*
X435292Y-142549D01*
X435584Y-142949D01*
X435817Y-143416D01*
X435876Y-144082D01*
X435817Y-144749D01*
X435584Y-145216D01*
X435292Y-145616D01*
X434942Y-145882D01*
X434476Y-146082D01*
X433309D01*
G01X437934D02*
X439392Y-142082D01*
X440851Y-146082D01*
G01X440326Y-144682D02*
X438459D01*
G01X444192Y-142082D02*
Y-146082D01*
G01X442851Y-142082D02*
X445534D01*
G01X450159Y-146082D02*
X447826D01*
Y-142082D01*
X450159D01*
G01X449226Y-144016D02*
X447826D01*
G01X433251Y-66082D02*
Y-62082D01*
X435934Y-66082D01*
Y-62082D01*
G01X437934Y-66082D02*
X439392Y-62082D01*
X440851Y-66082D01*
G01X440326Y-64682D02*
X438459D01*
G01X442676Y-66082D02*
Y-62082D01*
X444192Y-65416D01*
X445709Y-62082D01*
Y-66082D01*
G01X450159D02*
X447826D01*
Y-62082D01*
X450159D01*
G01X449226Y-64016D02*
X447826D01*
G01X436592Y-150082D02*
X436126Y-150216D01*
X435776Y-150549D01*
X435542Y-150949D01*
X435367Y-151482D01*
X435309Y-152082D01*
X435367Y-152682D01*
X435542Y-153216D01*
X435776Y-153616D01*
X436126Y-153949D01*
X436592Y-154082D01*
X437059Y-153949D01*
X437409Y-153616D01*
X437642Y-153216D01*
X437817Y-152682D01*
X437876Y-152082D01*
X437817Y-151482D01*
X437642Y-150949D01*
X437409Y-150549D01*
X437059Y-150216D01*
X436592Y-150082D01*
G01X440284Y-150749D02*
X440634Y-150349D01*
X441042Y-150149D01*
X441509Y-150082D01*
X442092Y-150216D01*
X442501Y-150549D01*
X442617Y-150949D01*
X442559Y-151349D01*
X442326Y-151682D01*
X441159Y-152349D01*
X440634Y-152816D01*
X440284Y-153482D01*
X440167Y-154082D01*
X442617D01*
G01X445434Y-152749D02*
X446950D01*
G01X449884Y-150749D02*
X450234Y-150349D01*
X450642Y-150149D01*
X451109Y-150082D01*
X451692Y-150216D01*
X452101Y-150549D01*
X452217Y-150949D01*
X452159Y-151349D01*
X451926Y-151682D01*
X450759Y-152349D01*
X450234Y-152816D01*
X449884Y-153482D01*
X449767Y-154082D01*
X452217D01*
G01X454684Y-152416D02*
X455092Y-151949D01*
X455442Y-151682D01*
X455909Y-151549D01*
X456317Y-151682D01*
X456609Y-151949D01*
X456842Y-152349D01*
X456901Y-152816D01*
X456842Y-153216D01*
X456609Y-153616D01*
X456259Y-153949D01*
X455851Y-154082D01*
X455384Y-153949D01*
X454976Y-153549D01*
X454742Y-152949D01*
X454684Y-152282D01*
X454800Y-151416D01*
X454976Y-150949D01*
X455267Y-150482D01*
X455676Y-150149D01*
X456084Y-150082D01*
X456492Y-150216D01*
X456784Y-150549D01*
G01X459834Y-152749D02*
X461350D01*
G01X464284Y-150749D02*
X464634Y-150349D01*
X465042Y-150149D01*
X465509Y-150082D01*
X466092Y-150216D01*
X466501Y-150549D01*
X466617Y-150949D01*
X466559Y-151349D01*
X466326Y-151682D01*
X465159Y-152349D01*
X464634Y-152816D01*
X464284Y-153482D01*
X464167Y-154082D01*
X466617D01*
G01X470892D02*
Y-150082D01*
X468734Y-152949D01*
X471651D01*
G01X442842Y-131916D02*
X446342D01*
G01X447642D02*
X451142D01*
G01X452442D02*
X455942D01*
G01X465076Y-126916D02*
X464726Y-126716D01*
X464317Y-126582D01*
X463851D01*
X463326Y-126782D01*
X462917Y-127116D01*
X462626Y-127516D01*
X462392Y-128182D01*
X462334Y-128782D01*
X462451Y-129382D01*
X462626Y-129782D01*
X462976Y-130182D01*
X463384Y-130449D01*
X463792Y-130582D01*
X464200D01*
X464609Y-130449D01*
X464959Y-130249D01*
X465251Y-129982D01*
G01X468592Y-130582D02*
X468126Y-130516D01*
X467717Y-130249D01*
X467367Y-129849D01*
X467134Y-129382D01*
X467017Y-128849D01*
Y-128316D01*
X467134Y-127782D01*
X467367Y-127316D01*
X467717Y-126916D01*
X468126Y-126649D01*
X468592Y-126582D01*
X469059Y-126649D01*
X469467Y-126916D01*
X469817Y-127316D01*
X470051Y-127782D01*
X470167Y-128316D01*
Y-128849D01*
X470051Y-129382D01*
X469817Y-129849D01*
X469467Y-130249D01*
X469059Y-130516D01*
X468592Y-130582D01*
G01X471876D02*
Y-126582D01*
X473392Y-129916D01*
X474909Y-126582D01*
Y-130582D01*
G01X477026D02*
Y-126582D01*
X478426D01*
X478892Y-126782D01*
X479242Y-127249D01*
X479359Y-127782D01*
X479242Y-128316D01*
X478950Y-128716D01*
X478426Y-128916D01*
X477026D01*
G01X481534Y-130582D02*
X482992Y-126582D01*
X484451Y-130582D01*
G01X483926Y-129182D02*
X482059D01*
G01X486451Y-130582D02*
Y-126582D01*
X489134Y-130582D01*
Y-126582D01*
G01X492592Y-130582D02*
Y-128782D01*
X491426Y-126582D01*
G01X493759D02*
X492592Y-128782D01*
G01X503476Y-126916D02*
X503126Y-126716D01*
X502717Y-126582D01*
X502251D01*
X501726Y-126782D01*
X501317Y-127116D01*
X501026Y-127516D01*
X500792Y-128182D01*
X500734Y-128782D01*
X500851Y-129382D01*
X501026Y-129782D01*
X501376Y-130182D01*
X501784Y-130449D01*
X502192Y-130582D01*
X502601D01*
X503009Y-130449D01*
X503359Y-130249D01*
X503651Y-129982D01*
G01X506992Y-130582D02*
X506526Y-130516D01*
X506117Y-130249D01*
X505767Y-129849D01*
X505534Y-129382D01*
X505417Y-128849D01*
Y-128316D01*
X505534Y-127782D01*
X505767Y-127316D01*
X506117Y-126916D01*
X506526Y-126649D01*
X506992Y-126582D01*
X507459Y-126649D01*
X507867Y-126916D01*
X508217Y-127316D01*
X508451Y-127782D01*
X508567Y-128316D01*
Y-128849D01*
X508451Y-129382D01*
X508217Y-129849D01*
X507867Y-130249D01*
X507459Y-130516D01*
X506992Y-130582D01*
G01X510451D02*
Y-126582D01*
X513134Y-130582D01*
Y-126582D01*
G01X515484Y-130582D02*
Y-126582D01*
X517701D01*
G01X516884Y-128516D02*
X515484D01*
G01X520692Y-126582D02*
X522092D01*
G01X521392D02*
Y-130582D01*
G01X520692D02*
X522092D01*
G01X524909D02*
Y-126582D01*
X526076D01*
X526542Y-126782D01*
X526892Y-127049D01*
X527184Y-127449D01*
X527417Y-127916D01*
X527476Y-128582D01*
X527417Y-129249D01*
X527184Y-129716D01*
X526892Y-130116D01*
X526542Y-130382D01*
X526076Y-130582D01*
X524909D01*
G01X532159D02*
X529826D01*
Y-126582D01*
X532159D01*
G01X531226Y-128516D02*
X529826D01*
G01X534451Y-130582D02*
Y-126582D01*
X537134Y-130582D01*
Y-126582D01*
G01X540592D02*
Y-130582D01*
G01X539251Y-126582D02*
X541934D01*
G01X544692D02*
X546092D01*
G01X545392D02*
Y-130582D01*
G01X544692D02*
X546092D01*
G01X548734D02*
X550192Y-126582D01*
X551651Y-130582D01*
G01X551126Y-129182D02*
X549259D01*
G01X553826Y-126582D02*
Y-130582D01*
X556159D01*
G01X442842Y-115416D02*
X446342D01*
G01X447642D02*
X451142D01*
G01X452442D02*
X455942D01*
G01X465076Y-110416D02*
X464726Y-110216D01*
X464317Y-110082D01*
X463851D01*
X463326Y-110282D01*
X462917Y-110616D01*
X462626Y-111016D01*
X462392Y-111682D01*
X462334Y-112282D01*
X462451Y-112882D01*
X462626Y-113282D01*
X462976Y-113682D01*
X463384Y-113949D01*
X463792Y-114082D01*
X464200D01*
X464609Y-113949D01*
X464959Y-113749D01*
X465251Y-113482D01*
G01X468592Y-114082D02*
X468126Y-114016D01*
X467717Y-113749D01*
X467367Y-113349D01*
X467134Y-112882D01*
X467017Y-112349D01*
Y-111816D01*
X467134Y-111282D01*
X467367Y-110816D01*
X467717Y-110416D01*
X468126Y-110149D01*
X468592Y-110082D01*
X469059Y-110149D01*
X469467Y-110416D01*
X469817Y-110816D01*
X470051Y-111282D01*
X470167Y-111816D01*
Y-112349D01*
X470051Y-112882D01*
X469817Y-113349D01*
X469467Y-113749D01*
X469059Y-114016D01*
X468592Y-114082D01*
G01X471876D02*
Y-110082D01*
X473392Y-113416D01*
X474909Y-110082D01*
Y-114082D01*
G01X477026D02*
Y-110082D01*
X478426D01*
X478892Y-110282D01*
X479242Y-110749D01*
X479359Y-111282D01*
X479242Y-111816D01*
X478950Y-112216D01*
X478426Y-112416D01*
X477026D01*
G01X481534Y-114082D02*
X482992Y-110082D01*
X484451Y-114082D01*
G01X483926Y-112682D02*
X482059D01*
G01X486451Y-114082D02*
Y-110082D01*
X489134Y-114082D01*
Y-110082D01*
G01X492592Y-114082D02*
Y-112282D01*
X491426Y-110082D01*
G01X493759D02*
X492592Y-112282D01*
G01X501492Y-110082D02*
X502892D01*
G01X502192D02*
Y-114082D01*
G01X501492D02*
X502892D01*
G01X505651D02*
Y-110082D01*
X508334Y-114082D01*
Y-110082D01*
G01X511792D02*
Y-114082D01*
G01X510451Y-110082D02*
X513134D01*
G01X517759Y-114082D02*
X515426D01*
Y-110082D01*
X517759D01*
G01X516826Y-112016D02*
X515426D01*
G01X520226Y-114082D02*
Y-110082D01*
X521684D01*
X522151Y-110282D01*
X522442Y-110549D01*
X522559Y-111082D01*
X522442Y-111616D01*
X522092Y-111949D01*
X521684Y-112149D01*
X520226D01*
G01X521684D02*
X522559Y-114082D01*
G01X524851D02*
Y-110082D01*
X527534Y-114082D01*
Y-110082D01*
G01X529534Y-114082D02*
X530992Y-110082D01*
X532451Y-114082D01*
G01X531926Y-112682D02*
X530059D01*
G01X534626Y-110082D02*
Y-114082D01*
X536959D01*
G01X442842Y-99416D02*
X446342D01*
G01X447642D02*
X451142D01*
G01X452442D02*
X455942D01*
G01X465076Y-94416D02*
X464726Y-94216D01*
X464317Y-94082D01*
X463851D01*
X463326Y-94282D01*
X462917Y-94616D01*
X462626Y-95016D01*
X462392Y-95682D01*
X462334Y-96282D01*
X462451Y-96882D01*
X462626Y-97282D01*
X462976Y-97682D01*
X463384Y-97949D01*
X463792Y-98082D01*
X464200D01*
X464609Y-97949D01*
X464959Y-97749D01*
X465251Y-97482D01*
G01X468592Y-98082D02*
X468126Y-98016D01*
X467717Y-97749D01*
X467367Y-97349D01*
X467134Y-96882D01*
X467017Y-96349D01*
Y-95816D01*
X467134Y-95282D01*
X467367Y-94816D01*
X467717Y-94416D01*
X468126Y-94149D01*
X468592Y-94082D01*
X469059Y-94149D01*
X469467Y-94416D01*
X469817Y-94816D01*
X470051Y-95282D01*
X470167Y-95816D01*
Y-96349D01*
X470051Y-96882D01*
X469817Y-97349D01*
X469467Y-97749D01*
X469059Y-98016D01*
X468592Y-98082D01*
G01X471876D02*
Y-94082D01*
X473392Y-97416D01*
X474909Y-94082D01*
Y-98082D01*
G01X477026D02*
Y-94082D01*
X478426D01*
X478892Y-94282D01*
X479242Y-94749D01*
X479359Y-95282D01*
X479242Y-95816D01*
X478950Y-96216D01*
X478426Y-96416D01*
X477026D01*
G01X481534Y-98082D02*
X482992Y-94082D01*
X484451Y-98082D01*
G01X483926Y-96682D02*
X482059D01*
G01X486451Y-98082D02*
Y-94082D01*
X489134Y-98082D01*
Y-94082D01*
G01X492592Y-98082D02*
Y-96282D01*
X491426Y-94082D01*
G01X493759D02*
X492592Y-96282D01*
G01X501026Y-98082D02*
Y-94082D01*
X502426D01*
X502892Y-94282D01*
X503242Y-94749D01*
X503359Y-95282D01*
X503242Y-95816D01*
X502951Y-96216D01*
X502426Y-96416D01*
X501026D01*
G01X505709Y-94082D02*
Y-96949D01*
X505942Y-97549D01*
X506409Y-97949D01*
X506992Y-98082D01*
X507576Y-97949D01*
X508042Y-97549D01*
X508276Y-96949D01*
Y-94082D01*
G01X512259Y-95949D02*
X512492Y-95749D01*
X512667Y-95416D01*
X512784Y-94949D01*
X512667Y-94549D01*
X512434Y-94282D01*
X512026Y-94082D01*
X510451D01*
Y-98082D01*
X512376D01*
X512784Y-97816D01*
X513017Y-97416D01*
X513134Y-96949D01*
X513017Y-96482D01*
X512667Y-96082D01*
X512259Y-95949D01*
X510451D01*
G01X515426Y-94082D02*
Y-98082D01*
X517759D01*
G01X520692Y-94082D02*
X522092D01*
G01X521392D02*
Y-98082D01*
G01X520692D02*
X522092D01*
G01X527476Y-94416D02*
X527126Y-94216D01*
X526717Y-94082D01*
X526251D01*
X525726Y-94282D01*
X525317Y-94616D01*
X525026Y-95016D01*
X524792Y-95682D01*
X524734Y-96282D01*
X524851Y-96882D01*
X525026Y-97282D01*
X525376Y-97682D01*
X525784Y-97949D01*
X526192Y-98082D01*
X526600D01*
X527009Y-97949D01*
X527359Y-97749D01*
X527651Y-97482D01*
G01X447547Y-115082D02*
X450837Y-108782D01*
G01X447547D02*
X450837Y-115082D01*
G01X483251Y-146082D02*
Y-142082D01*
X485934Y-146082D01*
Y-142082D01*
G01X488109D02*
Y-144949D01*
X488342Y-145549D01*
X488809Y-145949D01*
X489392Y-146082D01*
X489976Y-145949D01*
X490442Y-145549D01*
X490676Y-144949D01*
Y-142082D01*
G01X492676Y-146082D02*
Y-142082D01*
X494192Y-145416D01*
X495709Y-142082D01*
Y-146082D01*
G01X499459Y-143949D02*
X499692Y-143749D01*
X499867Y-143416D01*
X499984Y-142949D01*
X499867Y-142549D01*
X499634Y-142282D01*
X499226Y-142082D01*
X497651D01*
Y-146082D01*
X499576D01*
X499984Y-145816D01*
X500217Y-145416D01*
X500334Y-144949D01*
X500217Y-144482D01*
X499867Y-144082D01*
X499459Y-143949D01*
X497651D01*
G01X504959Y-146082D02*
X502626D01*
Y-142082D01*
X504959D01*
G01X504026Y-144016D02*
X502626D01*
G01X507426Y-146082D02*
Y-142082D01*
X508884D01*
X509351Y-142282D01*
X509642Y-142549D01*
X509759Y-143082D01*
X509642Y-143616D01*
X509292Y-143949D01*
X508884Y-144149D01*
X507426D01*
G01X508884D02*
X509759Y-146082D01*
G01X506304Y-76182D02*
Y-69882D01*
X509281D01*
G01X508184Y-72927D02*
X506304D01*
G01X512526Y-76182D02*
Y-69882D01*
X514484D01*
X515110Y-70197D01*
X515502Y-70617D01*
X515659Y-71457D01*
X515502Y-72297D01*
X515032Y-72822D01*
X514484Y-73137D01*
X512526D01*
G01X514484D02*
X515659Y-76182D01*
G01X518669D02*
Y-69882D01*
X520236D01*
X520862Y-70197D01*
X521332Y-70617D01*
X521724Y-71247D01*
X522037Y-71982D01*
X522115Y-73032D01*
X522037Y-74082D01*
X521724Y-74817D01*
X521332Y-75448D01*
X520862Y-75867D01*
X520236Y-76182D01*
X518669D01*
G01X524656D02*
Y-69882D01*
X526692Y-75132D01*
X528729Y-69882D01*
Y-76182D01*
G01X531974Y-74082D02*
X534010D01*
G01X537256Y-76182D02*
Y-69882D01*
X539292Y-75132D01*
X541329Y-69882D01*
Y-76182D01*
G01X547316Y-70407D02*
X546846Y-70092D01*
X546297Y-69882D01*
X545671D01*
X544966Y-70197D01*
X544417Y-70722D01*
X544026Y-71352D01*
X543712Y-72402D01*
X543634Y-73347D01*
X543791Y-74292D01*
X544026Y-74922D01*
X544496Y-75552D01*
X545044Y-75972D01*
X545592Y-76182D01*
X546140D01*
X546689Y-75972D01*
X547159Y-75657D01*
X547551Y-75238D01*
G01X550247Y-76182D02*
X553537Y-69882D01*
G01X550247D02*
X553537Y-76182D01*
G01X556234D02*
X558192Y-69882D01*
X560151Y-76182D01*
G01X559446Y-73977D02*
X556939D01*
G01X564492Y-76182D02*
Y-69882D01*
X563552Y-71142D01*
G01Y-76182D02*
X565432D01*
G01X569069Y-75238D02*
X569539Y-75762D01*
X570087Y-76077D01*
X570792Y-76182D01*
X571497Y-75972D01*
X572046Y-75552D01*
X572437Y-74817D01*
X572516Y-73977D01*
X572359Y-73137D01*
X571967Y-72612D01*
X571419Y-72192D01*
X570871Y-72087D01*
X570322Y-72192D01*
X569617Y-72612D01*
X569852Y-69882D01*
X571967D01*
G01X575604Y-73558D02*
X576152Y-72822D01*
X576622Y-72402D01*
X577249Y-72192D01*
X577797Y-72402D01*
X578189Y-72822D01*
X578502Y-73452D01*
X578581Y-74187D01*
X578502Y-74817D01*
X578189Y-75448D01*
X577719Y-75972D01*
X577171Y-76182D01*
X576544Y-75972D01*
X575996Y-75342D01*
X575682Y-74397D01*
X575604Y-73347D01*
X575760Y-71982D01*
X575996Y-71247D01*
X576387Y-70512D01*
X576936Y-69987D01*
X577484Y-69882D01*
X578032Y-70092D01*
X578424Y-70617D01*
G01X518192Y-153282D02*
Y-146982D01*
X517252Y-148242D01*
G01Y-153282D02*
X519132D01*
G01X524335D02*
X524492Y-151917D01*
X524727Y-150762D01*
X525040Y-149712D01*
X525432Y-148557D01*
X526059Y-146982D01*
X522926D01*
G01X530792D02*
X530166Y-147192D01*
X529696Y-147717D01*
X529382Y-148347D01*
X529147Y-149187D01*
X529069Y-150132D01*
X529147Y-151077D01*
X529382Y-151917D01*
X529696Y-152548D01*
X530166Y-153072D01*
X530792Y-153282D01*
X531419Y-153072D01*
X531889Y-152548D01*
X532202Y-151917D01*
X532437Y-151077D01*
X532516Y-150132D01*
X532437Y-149187D01*
X532202Y-148347D01*
X531889Y-147717D01*
X531419Y-147192D01*
X530792Y-146982D01*
G01X536074Y-151182D02*
X538110D01*
G01X542060Y-152548D02*
X542609Y-153072D01*
X543235Y-153282D01*
X543862Y-153072D01*
X544410Y-152442D01*
X544802Y-151497D01*
X544959Y-150552D01*
Y-149397D01*
X544802Y-148452D01*
X544410Y-147612D01*
X543940Y-147192D01*
X543392Y-146982D01*
X542766Y-147192D01*
X542296Y-147612D01*
X541982Y-148242D01*
X541826Y-149082D01*
X541982Y-149817D01*
X542374Y-150552D01*
X542844Y-150972D01*
X543392Y-151077D01*
X544019Y-150867D01*
X544489Y-150342D01*
X544959Y-149397D01*
G01X549692Y-146982D02*
X549066Y-147192D01*
X548596Y-147717D01*
X548282Y-148347D01*
X548047Y-149187D01*
X547969Y-150132D01*
X548047Y-151077D01*
X548282Y-151917D01*
X548596Y-152548D01*
X549066Y-153072D01*
X549692Y-153282D01*
X550319Y-153072D01*
X550789Y-152548D01*
X551102Y-151917D01*
X551337Y-151077D01*
X551416Y-150132D01*
X551337Y-149187D01*
X551102Y-148347D01*
X550789Y-147717D01*
X550319Y-147192D01*
X549692Y-146982D01*
G01X555992Y-153282D02*
X556540Y-153177D01*
X557167Y-152862D01*
X557559Y-152338D01*
X557716Y-151602D01*
X557559Y-150867D01*
X557089Y-150237D01*
X556384Y-149922D01*
X555600D01*
X555130Y-149712D01*
X554739Y-149187D01*
X554582Y-148452D01*
X554817Y-147717D01*
X555366Y-147192D01*
X555992Y-146982D01*
X556619Y-147192D01*
X557167Y-147717D01*
X557402Y-148452D01*
X557246Y-149187D01*
X556854Y-149712D01*
X556384Y-149922D01*
X555600D01*
X554896Y-150237D01*
X554426Y-150867D01*
X554269Y-151602D01*
X554426Y-152338D01*
X554817Y-152862D01*
X555444Y-153177D01*
X555992Y-153282D01*
G01X563232D02*
Y-146982D01*
X560334Y-151497D01*
X564251D01*
G01X568592Y-153282D02*
Y-146982D01*
X567652Y-148242D01*
G01Y-153282D02*
X569532D01*
G01X611126D02*
Y-146982D01*
X613084D01*
X613710Y-147297D01*
X614102Y-147717D01*
X614259Y-148557D01*
X614102Y-149397D01*
X613632Y-149922D01*
X613084Y-150237D01*
X611126D01*
G01X613084D02*
X614259Y-153282D01*
G01X620559D02*
X617426D01*
Y-146982D01*
X620559D01*
G01X619306Y-150027D02*
X617426D01*
G01X623334Y-146982D02*
X625292Y-153282D01*
X627251Y-146982D01*
G01X635934Y-153282D02*
X637892Y-146982D01*
X639851Y-153282D01*
G01X639146Y-151077D02*
X636639D01*
G01X645132Y-153282D02*
Y-146982D01*
X642234Y-151497D01*
X646151D01*
G54D14*
X-5933Y186268D03*
Y194732D03*
X10406Y186268D03*
Y194732D03*
G54D23*
X25450Y37750D03*
Y45250D03*
X33050Y37750D03*
Y45250D03*
G54D32*
X109032Y26858D03*
X120852D03*
G54D42*
G01X254842Y-138082D02*
X654842D01*
G01X254842Y-108082D02*
Y-88082D01*
X654842D01*
G01X304842Y-158082D02*
Y-138082D01*
G01X429842Y-88082D02*
Y-58082D01*
G01X430342Y-158082D02*
Y-138082D01*
G01X479842Y-158082D02*
Y-138082D01*
G54D24*
X29442Y80690D03*
Y87346D03*
G54D15*
X-1386Y55518D03*
Y118018D03*
X5270Y55518D03*
Y118018D03*
X65614Y152018D03*
X72270D03*
X81422Y144750D03*
X88078D03*
G54D33*
X109032Y38928D03*
X120852D03*
G54D43*
G01X654842Y-58082D02*
Y-158082D01*
X254842D01*
G01D02*
Y-58082D01*
X654842D01*
G54D25*
X27793Y122187D03*
Y130848D03*
X34092Y122187D03*
Y130848D03*
G54D34*
X119449Y67500D03*
X125551D03*
G54D16*
X-742Y75032D03*
Y77000D03*
Y78968D03*
Y134532D03*
Y136500D03*
Y138468D03*
X5242Y75032D03*
Y77000D03*
Y78968D03*
Y134532D03*
Y136500D03*
Y138468D03*
G54D44*
G01X328891Y-14750D02*
G03X336765Y-6876I0J7874D01*
G01Y193911D01*
G03X328891Y201785I-7874J0D01*
G01X-29376D01*
G03X-37250Y193911I0J-7874D01*
G01Y-6876D01*
G03X-29376Y-14750I7874J0D01*
G01X8025D01*
X328891D01*
G01D02*
G03X336765Y-6876I0J7874D01*
G01Y193911D01*
G03X328891Y201785I-7874J0D01*
G01X-29376D01*
G03X-37250Y193911I0J-7874D01*
G01Y-6876D01*
G03X-29376Y-14750I7874J0D01*
G01X8025D01*
X328891D01*
G54D26*
X33092Y94018D03*
X40792D03*
G54D17*
X2250Y77000D03*
Y136500D03*
G54D35*
X165930Y70396D03*
Y72364D03*
Y74333D03*
Y76301D03*
Y78270D03*
Y80238D03*
Y82207D03*
Y84175D03*
Y86144D03*
Y88112D03*
Y90081D03*
Y92049D03*
Y94018D03*
Y95986D03*
Y97955D03*
Y99923D03*
Y101892D03*
Y103860D03*
Y105829D03*
Y107797D03*
Y109766D03*
Y111734D03*
Y113703D03*
Y115671D03*
Y117640D03*
X226954Y72364D03*
Y70396D03*
Y76301D03*
Y74333D03*
Y82207D03*
Y80238D03*
Y78270D03*
Y86144D03*
Y84175D03*
Y90081D03*
Y88112D03*
Y94018D03*
Y92049D03*
Y99923D03*
Y97955D03*
Y95986D03*
Y103860D03*
Y101892D03*
Y107797D03*
Y105829D03*
Y111734D03*
Y109766D03*
Y117640D03*
Y115671D03*
Y113703D03*
G54D18*
X11942Y50018D03*
Y56018D03*
X30942Y101018D03*
Y107018D03*
X36942Y81018D03*
Y87018D03*
Y101018D03*
Y107018D03*
X44442Y81018D03*
Y87018D03*
X51942Y56018D03*
Y62018D03*
X94942Y27518D03*
Y33518D03*
X96942Y53018D03*
Y59018D03*
X104442Y53018D03*
Y59018D03*
X111942Y53018D03*
Y59018D03*
X129942Y27518D03*
Y33518D03*
X146942Y136018D03*
Y142018D03*
X154750Y58750D03*
Y64750D03*
X190500Y31500D03*
Y37500D03*
X198500Y31500D03*
Y37500D03*
X279750Y157750D03*
Y163750D03*
X285750Y157750D03*
Y163750D03*
X289442Y132518D03*
Y138518D03*
Y143518D03*
Y149518D03*
X295942Y132518D03*
Y138518D03*
X302442Y132518D03*
Y138518D03*
G54D36*
X176757Y63506D03*
X174789D03*
X172820D03*
Y124530D03*
X174789D03*
X176757D03*
X180694Y63506D03*
X178726D03*
Y124530D03*
X180694D03*
X184631Y63506D03*
X182663D03*
Y124530D03*
X184631D03*
X190537Y63506D03*
X188568D03*
X186600D03*
Y124530D03*
X188568D03*
X190537D03*
X194474Y63506D03*
X192505D03*
Y124530D03*
X194474D03*
X198411Y63506D03*
X196442D03*
Y124530D03*
X198411D03*
X202348Y63506D03*
X200379D03*
Y124530D03*
X202348D03*
X208253Y63506D03*
X206285D03*
X204316D03*
Y124530D03*
X206285D03*
X208253D03*
X212190Y63506D03*
X210222D03*
Y124530D03*
X212190D03*
X216127Y63506D03*
X214159D03*
Y124530D03*
X216127D03*
X220064Y63506D03*
X218096D03*
Y124530D03*
X220064D03*
G54D27*
X41942Y120541D03*
Y123494D03*
Y130994D03*
Y128041D03*
G54D19*
X12021Y63018D03*
X14442Y117939D03*
X44364Y55018D03*
G54D37*
X244722Y81270D03*
Y96230D03*
X253778Y81270D03*
Y96230D03*
G54D28*
X46750Y161199D03*
Y167301D03*
X56750Y161199D03*
Y167301D03*
X66750Y161199D03*
Y167301D03*
X76750Y161199D03*
Y167301D03*
G54D38*
X247785Y161970D03*
Y159411D03*
Y167089D03*
Y164530D03*
X264715Y159411D03*
Y161970D03*
Y164530D03*
Y167089D03*
G54D29*
X57751Y29644D03*
Y32203D03*
Y34762D03*
Y37321D03*
G54D39*
X292833Y-8156D03*
Y8183D03*
Y178844D03*
Y195183D03*
X301297Y-8156D03*
Y8183D03*
Y178844D03*
Y195183D03*
M02*
