0
SECTION
2
HEADER
9
$INSUNITS
70
4
9
$ACADVER
1
AC1014
9
$HANDSEED
5
FFFF
0
ENDSEC
0
SECTION
2
TABLES
0
TABLE
2
VPORT
5
8
100
AcDbSymbolTable
0
ENDTAB
0
TABLE
2
LTYPE
5
5
100
AcDbSymbolTable
0
LTYPE
5
14
100
AcDbSymbolTableRecord
100
AcDbLinetypeTableRecord
2
BYBLOCK
70
0
0
LTYPE
5
15
100
AcDbSymbolTableRecord
100
AcDbLinetypeTableRecord
2
BYLAYER
70
0
0
LTYPE
5
16
100
AcDbSymbolTableRecord
100
AcDbLinetypeTableRecord
2
DASHED
70
0
3
Dashed __ __ __ __ __ __ __ __ __ __ __ __ __ _
72
65
73
2
40
0.75
49
0.5
74
0
49
-0.25
74
0
0
ENDTAB
0
TABLE
2
LAYER
5
2
100
AcDbSymbolTable
70
2
0
LAYER
5
50
100
AcDbSymbolTableRecord
100
AcDbLayerTableRecord
2
0
70
0
62
7
6
CONTINUOUS
0
ENDTAB
0
TABLE
2
STYLE
5
3
100
AcDbSymbolTable
70
1
0
STYLE
5
11
100
AcDbSymbolTableRecord
100
AcDbTextStyleTableRecord
2
STANDARD
70
0
0
ENDTAB
0
TABLE
2
VIEW
5
6
100
AcDbSymbolTable
70
0
0
ENDTAB
0
TABLE
2
UCS
5
7
100
AcDbSymbolTable
70
0
0
ENDTAB
0
TABLE
2
APPID
5
9
100
AcDbSymbolTable
70
2
0
APPID
5
12
100
AcDbSymbolTableRecord
100
AcDbRegAppTableRecord
2
ACAD
70
0
0
ENDTAB
0
TABLE
2
DIMSTYLE
5
A
100
AcDbSymbolTable
70
1
0
ENDTAB
0
TABLE
2
BLOCK_RECORD
5
1
100
AcDbSymbolTable
70
1
0
BLOCK_RECORD
5
1F
100
AcDbSymbolTableRecord
100
AcDbBlockTableRecord
2
*MODEL_SPACE
0
BLOCK_RECORD
5
1B
100
AcDbSymbolTableRecord
100
AcDbBlockTableRecord
2
*PAPER_SPACE
0
ENDTAB
0
ENDSEC
0
SECTION
2
BLOCKS
0
BLOCK
5
20
100
AcDbEntity
100
AcDbBlockBegin
2
*MODEL_SPACE
0
ENDBLK
5
21
100
AcDbEntity
100
AcDbBlockEnd
0
BLOCK
5
1C
100
AcDbEntity
100
AcDbBlockBegin
2
*PAPER_SPACE
0
ENDBLK
5
1D
100
AcDbEntity
100
AcDbBlockEnd
0
ENDSEC
0
SECTION
2
ENTITIES
0
CIRCLE
5
100
100
AcDbEntity
8
0
100
AcDbCircle
10
-37.439842656541998
20
-23.823180642513343
30
0
40
1.5000000000000013
210
0
220
0
230
1
0
LWPOLYLINE
5
101
100
AcDbEntity
8
0
100
AcDbPolyline
90
4
70
1
43
0.0
10
-2.4445695444161006
20
9.834287360811544
10
-23.827915090129352
20
9.834287360811544
10
-23.827908755951842
20
12.785974343756486
10
-2.444569544416102
20
12.785974343756486
0
LWPOLYLINE
5
102
100
AcDbEntity
8
0
100
AcDbPolyline
90
4
70
1
43
0.0
10
-23.827908755952016
20
-10.088528373081964
10
-2.444569544416102
20
-10.088528373081964
10
-2.4445695444161006
20
-13.040216778624883
10
-23.827915090129178
20
-13.040216778624883
0
CIRCLE
5
103
100
AcDbEntity
8
0
100
AcDbCircle
10
37.554310839658839
20
-24.64925907828453
30
0
40
1.5000000000000013
210
0
220
0
230
1
0
LWPOLYLINE
5
104
100
AcDbEntity
8
0
100
AcDbPolyline
90
4
70
1
43
0.0
10
8.0490110552620422
20
-6.7064456205284708
10
2.2681493892255187
20
-6.7064456205284708
10
2.2681493892255187
20
-3.7160578098333028
10
8.0490110552620422
20
-3.7160578098333028
0
LWPOLYLINE
5
105
100
AcDbEntity
8
0
100
AcDbPolyline
90
4
70
1
43
0.0
10
10.573216800106506
20
4.540178227726698
10
23.340181299919493
20
4.540178227726698
10
23.340179719450372
20
1.5497888169110052
10
10.573216800106504
20
1.5497888169110052
0
LWPOLYLINE
5
106
100
AcDbEntity
8
0
100
AcDbPolyline
90
4
70
1
43
0.0
10
23.147536230612733
20
20.107826943574288
10
1.7640985379263574
20
20.107825861443985
10
1.7640985379263565
20
25.641183832434727
10
23.147536230612733
20
25.641183832434727
0
LWPOLYLINE
5
107
100
AcDbEntity
8
0
100
AcDbPolyline
90
4
70
1
43
0.0
10
-38.309180872870954
20
-18.437483779413522
10
-38.309180872870954
20
-15.738343197203942
10
-35.808156969261013
20
-15.738340352007953
10
-35.80815696926102
20
-18.437483779413522
0
LWPOLYLINE
5
108
100
AcDbEntity
8
0
100
AcDbPolyline
90
4
70
1
43
0.0
10
0.29801717863653787
20
20.107826758158957
10
-16.052136723963486
20
20.107826758158957
10
-16.052136723963486
20
25.641183832434727
10
0.29801717863654043
20
25.641183832434727
0
LWPOLYLINE
5
109
100
AcDbEntity
8
0
100
AcDbPolyline
90
4
70
1
43
0.0
10
34.723104652322654
20
-18.83234848623071
10
28.9422436972431
20
-18.83234848623071
10
28.9422436972431
20
-11.97238769372299
10
34.723104652322654
20
-11.97238769372299
0
LWPOLYLINE
5
110
100
AcDbEntity
8
0
100
AcDbPolyline
90
4
70
1
43
0.0
10
33.619309722117592
20
20.682201392046299
10
27.83844947801758
20
20.682201392046299
10
27.83844947801758
20
26.190025516859514
10
33.619309722117592
20
26.190025516859514
0
CIRCLE
5
111
100
AcDbEntity
8
0
100
AcDbCircle
10
-37.439842656541998
20
23.705009699976802
30
0
40
1.5000000000000013
210
0
220
0
230
1
0
LWPOLYLINE
5
112
100
AcDbEntity
8
0
100
AcDbPolyline
90
6
70
1
43
0.0
10
32.302390669726528
20
-25.641182409837995
10
-16.027150213860729
20
-25.641182409837995
10
-16.027150213860722
20
-20.107823003599592
10
5.3561921647637512
20
-20.107825889280562
10
5.825723755279296
20
-20.107825869038074
10
32.302390669726528
20
-20.107825869038074
0
LWPOLYLINE
5
113
100
AcDbEntity
8
0
100
AcDbPolyline
90
6
70
1
43
0.0
10
51.180100891514542
20
29.867474001112527
42
0.41421356237310608
10
49.180100891514478
20
31.867474001112527
10
-39.654070885633253
20
31.867474001109393
10
-39.654070885633161
20
-33.836264683195637
10
49.18010089151462
20
-33.836264683195566
42
0.41421356237309825
10
51.180100891514606
20
-31.836264683195562
0
ENDSEC
0
SECTION
2
OBJECTS
0
DICTIONARY
5
C
100
AcDbDictionary
3
ACAD_GROUP
350
D
3
ACAD_MLINESTYLE
350
17
0
DICTIONARY
5
D
100
AcDbDictionary
0
DICTIONARY
5
1A
330
C
100
AcDbDictionary
0
DICTIONARY
5
17
100
AcDbDictionary
0
ENDSEC
0
EOF
