<svg id="Capa_1" data-name="Capa 1" xmlns="http://www.w3.org/2000/svg" viewBox="0 0 1066.09 591.3"><g id="USBC_2" data-name="USBC 2"><path d="M9,308v0Z" transform="translate(-8.49 -15.28)" style="fill:none;stroke:#9664ff;stroke-linecap:round;stroke-linejoin:round"/><path d="M9,406.25H9Z" transform="translate(-8.49 -15.28)" style="fill:none;stroke:#9664ff;stroke-linecap:round;stroke-linejoin:round"/><path d="M127.56,406.25v0Z" transform="translate(-8.49 -15.28)" style="fill:none;stroke:#9664ff;stroke-linecap:round;stroke-linejoin:round"/><path d="M127.56,308h0Z" transform="translate(-8.49 -15.28)" style="fill:none;stroke:#9664ff;stroke-linecap:round;stroke-linejoin:round"/></g><g id="USBC_1" data-name="USBC 1"><path d="M9,146v0Z" transform="translate(-8.49 -15.28)" style="fill:none;stroke:#9664ff;stroke-linecap:round;stroke-linejoin:round"/><path d="M9,244.16H9Z" transform="translate(-8.49 -15.28)" style="fill:none;stroke:#9664ff;stroke-linecap:round;stroke-linejoin:round"/><path d="M127.56,244.16v0Z" transform="translate(-8.49 -15.28)" style="fill:none;stroke:#9664ff;stroke-linecap:round;stroke-linejoin:round"/><path d="M127.56,146h0Z" transform="translate(-8.49 -15.28)" style="fill:none;stroke:#9664ff;stroke-linecap:round;stroke-linejoin:round"/></g><g id="SW3"><rect x="942.28" y="567.24" width="7.09" height="11.18" style="fill:#9664ff;opacity:0.4000000059604645"/><rect x="942.28" y="522.7" width="7.09" height="11.18" style="fill:#9664ff;opacity:0.4000000059604645"/><rect x="965.36" y="567.24" width="7.09" height="11.18" style="fill:#9664ff;opacity:0.4000000059604645"/><rect x="965.36" y="522.7" width="7.09" height="11.18" style="fill:#9664ff;opacity:0.4000000059604645"/><path d="M948.68,542.66v0Z" transform="translate(-8.49 -15.28)" style="fill:none;stroke:#9664ff;stroke-linecap:round;stroke-linejoin:round"/><path d="M948.68,587.74h0Z" transform="translate(-8.49 -15.28)" style="fill:none;stroke:#9664ff;stroke-linecap:round;stroke-linejoin:round"/><path d="M983,587.74v0Z" transform="translate(-8.49 -15.28)" style="fill:none;stroke:#9664ff;stroke-linecap:round;stroke-linejoin:round"/><path d="M983,542.66h0Z" transform="translate(-8.49 -15.28)" style="fill:none;stroke:#9664ff;stroke-linecap:round;stroke-linejoin:round"/></g><g id="SW2"><rect x="942.28" y="57.45" width="7.09" height="11.18" style="fill:#9664ff;opacity:0.4000000059604645"/><rect x="942.28" y="12.91" width="7.09" height="11.18" style="fill:#9664ff;opacity:0.4000000059604645"/><rect x="965.36" y="57.45" width="7.09" height="11.18" style="fill:#9664ff;opacity:0.4000000059604645"/><rect x="965.36" y="12.91" width="7.09" height="11.18" style="fill:#9664ff;opacity:0.4000000059604645"/><path d="M948.68,32.87v0Z" transform="translate(-8.49 -15.28)" style="fill:none;stroke:#9664ff;stroke-linecap:round;stroke-linejoin:round"/><path d="M948.68,78h0Z" transform="translate(-8.49 -15.28)" style="fill:none;stroke:#9664ff;stroke-linecap:round;stroke-linejoin:round"/><path d="M983,78v0Z" transform="translate(-8.49 -15.28)" style="fill:none;stroke:#9664ff;stroke-linecap:round;stroke-linejoin:round"/><path d="M983,32.87h0Z" transform="translate(-8.49 -15.28)" style="fill:none;stroke:#9664ff;stroke-linecap:round;stroke-linejoin:round"/></g><g id="SW1"><rect x="125.76" y="39.26" width="11.18" height="7.09" style="fill:#9664ff;opacity:0.4000000059604645"/><rect x="125.76" y="16.18" width="11.18" height="7.09" style="fill:#9664ff;opacity:0.4000000059604645"/><rect x="170.3" y="39.26" width="11.18" height="7.09" style="fill:#9664ff;opacity:0.4000000059604645"/><rect x="170.3" y="16.18" width="11.18" height="7.09" style="fill:#9664ff;opacity:0.4000000059604645"/><path d="M138.93,63.72h0Z" transform="translate(-8.49 -15.28)" style="fill:none;stroke:#9664ff;stroke-linecap:round;stroke-linejoin:round"/><path d="M184,63.72v0Z" transform="translate(-8.49 -15.28)" style="fill:none;stroke:#9664ff;stroke-linecap:round;stroke-linejoin:round"/><path d="M184,29.38h0Z" transform="translate(-8.49 -15.28)" style="fill:none;stroke:#9664ff;stroke-linecap:round;stroke-linejoin:round"/><path d="M138.93,29.38v0Z" transform="translate(-8.49 -15.28)" style="fill:none;stroke:#9664ff;stroke-linecap:round;stroke-linejoin:round"/></g><g id="JP1"><rect x="477.37" y="387.11" width="18.81" height="18.81" style="fill:red;opacity:0.4000000059604645"/><path d="M522.52,402.4c12.54,0,12.54,18.81,0,18.81S510,402.4,522.52,402.4Z" transform="translate(-8.49 -15.28)" style="fill:red;opacity:0.4000000059604645"/><path d="M479.49,426.24v0Z" transform="translate(-8.49 -15.28)" style="fill:none;stroke:red;stroke-linecap:round;stroke-linejoin:round"/><path d="M479.49,397.37h0Z" transform="translate(-8.49 -15.28)" style="fill:none;stroke:red;stroke-linecap:round;stroke-linejoin:round"/><path d="M538.3,397.37v0Z" transform="translate(-8.49 -15.28)" style="fill:none;stroke:red;stroke-linecap:round;stroke-linejoin:round"/><path d="M538.3,426.24h0Z" transform="translate(-8.49 -15.28)" style="fill:none;stroke:red;stroke-linecap:round;stroke-linejoin:round"/></g><g id="J8"><path d="M1013.23,479.82c11.09,0,11.09,16.63,0,16.63S1002.14,479.82,1013.23,479.82Z" transform="translate(-8.49 -15.28)" style="fill:#9664ff;opacity:0.4000000059604645"/><path d="M1013.23,452.56c11.09,0,11.09,16.63,0,16.63S1002.14,452.56,1013.23,452.56Z" transform="translate(-8.49 -15.28)" style="fill:#9664ff;opacity:0.4000000059604645"/><path d="M1013.23,425.3c11.09,0,11.09,16.63,0,16.63S1002.14,425.3,1013.23,425.3Z" transform="translate(-8.49 -15.28)" style="fill:#9664ff;opacity:0.4000000059604645"/><path d="M1013.23,398c11.09,0,11.09,16.63,0,16.63S1002.14,398,1013.23,398Z" transform="translate(-8.49 -15.28)" style="fill:#9664ff;opacity:0.4000000059604645"/><path d="M1013.23,370.78c11.09,0,11.09,16.63,0,16.63S1002.14,370.78,1013.23,370.78Z" transform="translate(-8.49 -15.28)" style="fill:#9664ff;opacity:0.4000000059604645"/><path d="M1013.23,343.51c11.09,0,11.09,16.63,0,16.63S1002.14,343.51,1013.23,343.51Z" transform="translate(-8.49 -15.28)" style="fill:#9664ff;opacity:0.4000000059604645"/><path d="M1013.23,316.25c11.09,0,11.09,16.63,0,16.63S1002.14,316.25,1013.23,316.25Z" transform="translate(-8.49 -15.28)" style="fill:#9664ff;opacity:0.4000000059604645"/><path d="M1013.23,289c11.09,0,11.09,16.63,0,16.63S1002.14,289,1013.23,289Z" transform="translate(-8.49 -15.28)" style="fill:#9664ff;opacity:0.4000000059604645"/><path d="M1013.23,261.73c11.09,0,11.09,16.63,0,16.63S1002.14,261.73,1013.23,261.73Z" transform="translate(-8.49 -15.28)" style="fill:#9664ff;opacity:0.4000000059604645"/><path d="M1013.23,234.47c11.09,0,11.09,16.63,0,16.63S1002.14,234.47,1013.23,234.47Z" transform="translate(-8.49 -15.28)" style="fill:#9664ff;opacity:0.4000000059604645"/><path d="M1013.23,207.21c11.09,0,11.09,16.63,0,16.63S1002.14,207.21,1013.23,207.21Z" transform="translate(-8.49 -15.28)" style="fill:#9664ff;opacity:0.4000000059604645"/><path d="M1013.23,180c11.09,0,11.09,16.63,0,16.63S1002.14,180,1013.23,180Z" transform="translate(-8.49 -15.28)" style="fill:#9664ff;opacity:0.4000000059604645"/><path d="M1013.23,152.68c11.09,0,11.09,16.63,0,16.63S1002.14,152.68,1013.23,152.68Z" transform="translate(-8.49 -15.28)" style="fill:#9664ff;opacity:0.4000000059604645"/><path d="M1013.23,125.42c11.09,0,11.09,16.63,0,16.63S1002.14,125.42,1013.23,125.42Z" transform="translate(-8.49 -15.28)" style="fill:#9664ff;opacity:0.4000000059604645"/><path d="M1040.49,479.82c11.09,0,11.09,16.63,0,16.63S1029.4,479.82,1040.49,479.82Z" transform="translate(-8.49 -15.28)" style="fill:#9664ff;opacity:0.4000000059604645"/><path d="M1040.49,452.56c11.09,0,11.09,16.63,0,16.63S1029.4,452.56,1040.49,452.56Z" transform="translate(-8.49 -15.28)" style="fill:#9664ff;opacity:0.4000000059604645"/><path d="M1040.49,425.3c11.09,0,11.09,16.63,0,16.63S1029.4,425.3,1040.49,425.3Z" transform="translate(-8.49 -15.28)" style="fill:#9664ff;opacity:0.4000000059604645"/><path d="M1040.49,398c11.09,0,11.09,16.63,0,16.63S1029.4,398,1040.49,398Z" transform="translate(-8.49 -15.28)" style="fill:#9664ff;opacity:0.4000000059604645"/><path d="M1040.49,370.78c11.09,0,11.09,16.63,0,16.63S1029.4,370.78,1040.49,370.78Z" transform="translate(-8.49 -15.28)" style="fill:#9664ff;opacity:0.4000000059604645"/><path d="M1040.49,343.51c11.09,0,11.09,16.63,0,16.63S1029.4,343.51,1040.49,343.51Z" transform="translate(-8.49 -15.28)" style="fill:#9664ff;opacity:0.4000000059604645"/><path d="M1040.49,316.25c11.09,0,11.09,16.63,0,16.63S1029.4,316.25,1040.49,316.25Z" transform="translate(-8.49 -15.28)" style="fill:#9664ff;opacity:0.4000000059604645"/><path d="M1040.49,289c11.09,0,11.09,16.63,0,16.63S1029.4,289,1040.49,289Z" transform="translate(-8.49 -15.28)" style="fill:#9664ff;opacity:0.4000000059604645"/><path d="M1040.49,261.73c11.09,0,11.09,16.63,0,16.63S1029.4,261.73,1040.49,261.73Z" transform="translate(-8.49 -15.28)" style="fill:#9664ff;opacity:0.4000000059604645"/><path d="M1040.49,234.47c11.09,0,11.09,16.63,0,16.63S1029.4,234.47,1040.49,234.47Z" transform="translate(-8.49 -15.28)" style="fill:#9664ff;opacity:0.4000000059604645"/><path d="M1040.49,207.21c11.09,0,11.09,16.63,0,16.63S1029.4,207.21,1040.49,207.21Z" transform="translate(-8.49 -15.28)" style="fill:#9664ff;opacity:0.4000000059604645"/><path d="M1040.49,180c11.09,0,11.09,16.63,0,16.63S1029.4,180,1040.49,180Z" transform="translate(-8.49 -15.28)" style="fill:#9664ff;opacity:0.4000000059604645"/><path d="M1040.49,152.68c11.09,0,11.09,16.63,0,16.63S1029.4,152.68,1040.49,152.68Z" transform="translate(-8.49 -15.28)" style="fill:#9664ff;opacity:0.4000000059604645"/><rect x="1023.68" y="110.14" width="16.63" height="16.63" style="fill:#9664ff;opacity:0.4000000059604645"/><path d="M998.69,116.08v0Z" transform="translate(-8.49 -15.28)" style="fill:none;stroke:#9664ff;stroke-linecap:round;stroke-linejoin:round"/><path d="M998.69,505.79h0Z" transform="translate(-8.49 -15.28)" style="fill:none;stroke:#9664ff;stroke-linecap:round;stroke-linejoin:round"/><path d="M1055,505.79v0Z" transform="translate(-8.49 -15.28)" style="fill:none;stroke:#9664ff;stroke-linecap:round;stroke-linejoin:round"/><path d="M1055,123.6l-7.51-7.52Z" transform="translate(-8.49 -15.28)" style="fill:none;stroke:#9664ff;stroke-linecap:round;stroke-linejoin:round"/><path d="M1047.52,116.08h0Z" transform="translate(-8.49 -15.28)" style="fill:none;stroke:#9664ff;stroke-linecap:round;stroke-linejoin:round"/></g><g id="J6"><rect x="592.14" y="407.83" width="18.27" height="18.27" style="fill:#9664ff;opacity:0.4000000059604645"/><path d="M637,423.12c12.18,0,12.18,18.26,0,18.26S624.85,423.12,637,423.12Z" transform="translate(-8.49 -15.28)" style="fill:#9664ff;opacity:0.4000000059604645"/><path d="M664.28,423.12c12.18,0,12.18,18.26,0,18.26S652.11,423.12,664.28,423.12Z" transform="translate(-8.49 -15.28)" style="fill:#9664ff;opacity:0.4000000059604645"/><path d="M691.54,423.12c12.18,0,12.18,18.26,0,18.26S679.37,423.12,691.54,423.12Z" transform="translate(-8.49 -15.28)" style="fill:#9664ff;opacity:0.4000000059604645"/><path d="M718.81,423.12c12.17,0,12.17,18.26,0,18.26S706.63,423.12,718.81,423.12Z" transform="translate(-8.49 -15.28)" style="fill:#9664ff;opacity:0.4000000059604645"/><path d="M746.07,423.12c12.17,0,12.17,18.26,0,18.26S733.89,423.12,746.07,423.12Z" transform="translate(-8.49 -15.28)" style="fill:#9664ff;opacity:0.4000000059604645"/><path d="M773.33,423.12c12.18,0,12.18,18.26,0,18.26S761.15,423.12,773.33,423.12Z" transform="translate(-8.49 -15.28)" style="fill:#9664ff;opacity:0.4000000059604645"/><path d="M800.59,423.12c12.18,0,12.18,18.26,0,18.26S788.41,423.12,800.59,423.12Z" transform="translate(-8.49 -15.28)" style="fill:#9664ff;opacity:0.4000000059604645"/><path d="M818.25,446.47v0Z" transform="translate(-8.49 -15.28)" style="fill:none;stroke:#9664ff;stroke-linecap:round;stroke-linejoin:round"/><path d="M818.25,418h0Z" transform="translate(-8.49 -15.28)" style="fill:none;stroke:#9664ff;stroke-linecap:round;stroke-linejoin:round"/><path d="M592.11,418v0Z" transform="translate(-8.49 -15.28)" style="fill:none;stroke:#9664ff;stroke-linecap:round;stroke-linejoin:round"/><path d="M592.11,446.47h0Z" transform="translate(-8.49 -15.28)" style="fill:none;stroke:#9664ff;stroke-linecap:round;stroke-linejoin:round"/></g><g id="J5"><rect x="592.14" y="162.48" width="18.27" height="18.26" style="fill:#9664ff;opacity:0.4000000059604645"/><path d="M637,177.76c12.18,0,12.18,18.27,0,18.27S624.85,177.76,637,177.76Z" transform="translate(-8.49 -15.28)" style="fill:#9664ff;opacity:0.4000000059604645"/><path d="M664.28,177.76c12.18,0,12.18,18.27,0,18.27S652.11,177.76,664.28,177.76Z" transform="translate(-8.49 -15.28)" style="fill:#9664ff;opacity:0.4000000059604645"/><path d="M691.54,177.76c12.18,0,12.18,18.27,0,18.27S679.37,177.76,691.54,177.76Z" transform="translate(-8.49 -15.28)" style="fill:#9664ff;opacity:0.4000000059604645"/><path d="M718.81,177.76c12.17,0,12.17,18.27,0,18.27S706.63,177.76,718.81,177.76Z" transform="translate(-8.49 -15.28)" style="fill:#9664ff;opacity:0.4000000059604645"/><path d="M746.07,177.76c12.17,0,12.17,18.27,0,18.27S733.89,177.76,746.07,177.76Z" transform="translate(-8.49 -15.28)" style="fill:#9664ff;opacity:0.4000000059604645"/><path d="M773.33,177.76c12.18,0,12.18,18.27,0,18.27S761.15,177.76,773.33,177.76Z" transform="translate(-8.49 -15.28)" style="fill:#9664ff;opacity:0.4000000059604645"/><path d="M800.59,177.76c12.18,0,12.18,18.27,0,18.27S788.41,177.76,800.59,177.76Z" transform="translate(-8.49 -15.28)" style="fill:#9664ff;opacity:0.4000000059604645"/><path d="M818.25,201.12v0Z" transform="translate(-8.49 -15.28)" style="fill:none;stroke:#9664ff;stroke-linecap:round;stroke-linejoin:round"/><path d="M818.25,172.68h0Z" transform="translate(-8.49 -15.28)" style="fill:none;stroke:#9664ff;stroke-linecap:round;stroke-linejoin:round"/><path d="M592.11,172.68v0Z" transform="translate(-8.49 -15.28)" style="fill:none;stroke:#9664ff;stroke-linecap:round;stroke-linejoin:round"/><path d="M592.11,201.12h0Z" transform="translate(-8.49 -15.28)" style="fill:none;stroke:#9664ff;stroke-linecap:round;stroke-linejoin:round"/></g><g id="J4"><path d="M580.61,560.92c12,0,12,18,0,18S568.62,560.92,580.61,560.92Z" transform="translate(-8.49 -15.28)" style="fill:#9664ff;opacity:0.4000000059604645"/><rect x="563.12" y="518.38" width="17.99" height="17.99" style="fill:#9664ff;opacity:0.4000000059604645"/><path d="M607.87,560.92c12,0,12,18,0,18S595.88,560.92,607.87,560.92Z" transform="translate(-8.49 -15.28)" style="fill:#9664ff;opacity:0.4000000059604645"/><path d="M607.87,533.66c12,0,12,18,0,18S595.88,533.66,607.87,533.66Z" transform="translate(-8.49 -15.28)" style="fill:#9664ff;opacity:0.4000000059604645"/><path d="M635.14,560.92c12,0,12,18,0,18S623.14,560.92,635.14,560.92Z" transform="translate(-8.49 -15.28)" style="fill:#9664ff;opacity:0.4000000059604645"/><path d="M635.14,533.66c12,0,12,18,0,18S623.14,533.66,635.14,533.66Z" transform="translate(-8.49 -15.28)" style="fill:#9664ff;opacity:0.4000000059604645"/><path d="M662.4,560.92c12,0,12,18,0,18S650.4,560.92,662.4,560.92Z" transform="translate(-8.49 -15.28)" style="fill:#9664ff;opacity:0.4000000059604645"/><path d="M662.4,533.66c12,0,12,18,0,18S650.4,533.66,662.4,533.66Z" transform="translate(-8.49 -15.28)" style="fill:#9664ff;opacity:0.4000000059604645"/><path d="M689.66,560.92c12,0,12,18,0,18S677.66,560.92,689.66,560.92Z" transform="translate(-8.49 -15.28)" style="fill:#9664ff;opacity:0.4000000059604645"/><path d="M689.66,533.66c12,0,12,18,0,18S677.66,533.66,689.66,533.66Z" transform="translate(-8.49 -15.28)" style="fill:#9664ff;opacity:0.4000000059604645"/><path d="M716.92,560.92c12,0,12,18,0,18S704.92,560.92,716.92,560.92Z" transform="translate(-8.49 -15.28)" style="fill:#9664ff;opacity:0.4000000059604645"/><path d="M716.92,533.66c12,0,12,18,0,18S704.92,533.66,716.92,533.66Z" transform="translate(-8.49 -15.28)" style="fill:#9664ff;opacity:0.4000000059604645"/><path d="M734.84,527.85h0Z" transform="translate(-8.49 -15.28)" style="fill:none;stroke:#9664ff;stroke-linecap:round;stroke-linejoin:round"/><path d="M562.69,527.85v0Z" transform="translate(-8.49 -15.28)" style="fill:none;stroke:#9664ff;stroke-linecap:round;stroke-linejoin:round"/><path d="M562.69,584.73h0Z" transform="translate(-8.49 -15.28)" style="fill:none;stroke:#9664ff;stroke-linecap:round;stroke-linejoin:round"/><path d="M734.84,584.73v0Z" transform="translate(-8.49 -15.28)" style="fill:none;stroke:#9664ff;stroke-linecap:round;stroke-linejoin:round"/></g><g id="J3"><path d="M335.26,561.06c11.81,0,11.81,17.72,0,17.72S323.45,561.06,335.26,561.06Z" transform="translate(-8.49 -15.28)" style="fill:#9664ff;opacity:0.4000000059604645"/><rect x="317.91" y="518.51" width="17.72" height="17.72" style="fill:#9664ff;opacity:0.4000000059604645"/><path d="M362.52,561.06c11.81,0,11.81,17.72,0,17.72S350.71,561.06,362.52,561.06Z" transform="translate(-8.49 -15.28)" style="fill:#9664ff;opacity:0.4000000059604645"/><path d="M362.52,533.8c11.81,0,11.81,17.72,0,17.72S350.71,533.8,362.52,533.8Z" transform="translate(-8.49 -15.28)" style="fill:#9664ff;opacity:0.4000000059604645"/><path d="M389.78,561.06c11.82,0,11.82,17.72,0,17.72S378,561.06,389.78,561.06Z" transform="translate(-8.49 -15.28)" style="fill:#9664ff;opacity:0.4000000059604645"/><path d="M389.78,533.8c11.82,0,11.82,17.72,0,17.72S378,533.8,389.78,533.8Z" transform="translate(-8.49 -15.28)" style="fill:#9664ff;opacity:0.4000000059604645"/><path d="M417,561.06c11.82,0,11.82,17.72,0,17.72S405.23,561.06,417,561.06Z" transform="translate(-8.49 -15.28)" style="fill:#9664ff;opacity:0.4000000059604645"/><path d="M417,533.8c11.82,0,11.82,17.72,0,17.72S405.23,533.8,417,533.8Z" transform="translate(-8.49 -15.28)" style="fill:#9664ff;opacity:0.4000000059604645"/><path d="M444.31,561.06c11.81,0,11.81,17.72,0,17.72S432.49,561.06,444.31,561.06Z" transform="translate(-8.49 -15.28)" style="fill:#9664ff;opacity:0.4000000059604645"/><path d="M444.31,533.8c11.81,0,11.81,17.72,0,17.72S432.49,533.8,444.31,533.8Z" transform="translate(-8.49 -15.28)" style="fill:#9664ff;opacity:0.4000000059604645"/><path d="M471.57,561.06c11.81,0,11.81,17.72,0,17.72S459.75,561.06,471.57,561.06Z" transform="translate(-8.49 -15.28)" style="fill:#9664ff;opacity:0.4000000059604645"/><path d="M471.57,533.8c11.81,0,11.81,17.72,0,17.72S459.75,533.8,471.57,533.8Z" transform="translate(-8.49 -15.28)" style="fill:#9664ff;opacity:0.4000000059604645"/><path d="M498.83,561.06c11.81,0,11.81,17.72,0,17.72S487,561.06,498.83,561.06Z" transform="translate(-8.49 -15.28)" style="fill:#9664ff;opacity:0.4000000059604645"/><path d="M498.83,533.8c11.81,0,11.81,17.72,0,17.72S487,533.8,498.83,533.8Z" transform="translate(-8.49 -15.28)" style="fill:#9664ff;opacity:0.4000000059604645"/><path d="M526.09,561.06c11.81,0,11.81,17.72,0,17.72S514.28,561.06,526.09,561.06Z" transform="translate(-8.49 -15.28)" style="fill:#9664ff;opacity:0.4000000059604645"/><path d="M526.09,533.8c11.81,0,11.81,17.72,0,17.72S514.28,533.8,526.09,533.8Z" transform="translate(-8.49 -15.28)" style="fill:#9664ff;opacity:0.4000000059604645"/><path d="M317.6,528.22h0Z" transform="translate(-8.49 -15.28)" style="fill:none;stroke:#9664ff;stroke-linecap:round;stroke-linejoin:round"/><path d="M543.75,528.22v0Z" transform="translate(-8.49 -15.28)" style="fill:none;stroke:#9664ff;stroke-linecap:round;stroke-linejoin:round"/><path d="M543.75,584.36h0Z" transform="translate(-8.49 -15.28)" style="fill:none;stroke:#9664ff;stroke-linecap:round;stroke-linejoin:round"/><path d="M317.6,584.36v0Z" transform="translate(-8.49 -15.28)" style="fill:none;stroke:#9664ff;stroke-linecap:round;stroke-linejoin:round"/></g><g id="J2"><path d="M237.12,70.36c11.81,0,11.81,17.72,0,17.72S225.31,70.36,237.12,70.36Z" transform="translate(-8.49 -15.28)" style="fill:#9664ff;opacity:0.4000000059604645"/><path d="M237.12,43.09c11.81,0,11.81,17.72,0,17.72S225.31,43.09,237.12,43.09Z" transform="translate(-8.49 -15.28)" style="fill:#9664ff;opacity:0.4000000059604645"/><path d="M264.38,70.36c11.81,0,11.81,17.72,0,17.72S252.57,70.36,264.38,70.36Z" transform="translate(-8.49 -15.28)" style="fill:#9664ff;opacity:0.4000000059604645"/><path d="M264.38,43.09c11.81,0,11.81,17.72,0,17.72S252.57,43.09,264.38,43.09Z" transform="translate(-8.49 -15.28)" style="fill:#9664ff;opacity:0.4000000059604645"/><path d="M291.64,70.36c11.82,0,11.82,17.72,0,17.72S279.83,70.36,291.64,70.36Z" transform="translate(-8.49 -15.28)" style="fill:#9664ff;opacity:0.4000000059604645"/><path d="M291.64,43.09c11.82,0,11.82,17.72,0,17.72S279.83,43.09,291.64,43.09Z" transform="translate(-8.49 -15.28)" style="fill:#9664ff;opacity:0.4000000059604645"/><path d="M318.9,70.36c11.82,0,11.82,17.72,0,17.72S307.09,70.36,318.9,70.36Z" transform="translate(-8.49 -15.28)" style="fill:#9664ff;opacity:0.4000000059604645"/><path d="M318.9,43.09c11.82,0,11.82,17.72,0,17.72S307.09,43.09,318.9,43.09Z" transform="translate(-8.49 -15.28)" style="fill:#9664ff;opacity:0.4000000059604645"/><path d="M346.16,70.36c11.82,0,11.82,17.72,0,17.72S334.35,70.36,346.16,70.36Z" transform="translate(-8.49 -15.28)" style="fill:#9664ff;opacity:0.4000000059604645"/><path d="M346.16,43.09c11.82,0,11.82,17.72,0,17.72S334.35,43.09,346.16,43.09Z" transform="translate(-8.49 -15.28)" style="fill:#9664ff;opacity:0.4000000059604645"/><path d="M373.43,70.36c11.81,0,11.81,17.72,0,17.72S361.61,70.36,373.43,70.36Z" transform="translate(-8.49 -15.28)" style="fill:#9664ff;opacity:0.4000000059604645"/><path d="M373.43,43.09c11.81,0,11.81,17.72,0,17.72S361.61,43.09,373.43,43.09Z" transform="translate(-8.49 -15.28)" style="fill:#9664ff;opacity:0.4000000059604645"/><path d="M400.69,70.36c11.81,0,11.81,17.72,0,17.72S388.87,70.36,400.69,70.36Z" transform="translate(-8.49 -15.28)" style="fill:#9664ff;opacity:0.4000000059604645"/><path d="M400.69,43.09c11.81,0,11.81,17.72,0,17.72S388.87,43.09,400.69,43.09Z" transform="translate(-8.49 -15.28)" style="fill:#9664ff;opacity:0.4000000059604645"/><path d="M428,70.36c11.81,0,11.81,17.72,0,17.72S416.14,70.36,428,70.36Z" transform="translate(-8.49 -15.28)" style="fill:#9664ff;opacity:0.4000000059604645"/><path d="M428,43.09c11.81,0,11.81,17.72,0,17.72S416.14,43.09,428,43.09Z" transform="translate(-8.49 -15.28)" style="fill:#9664ff;opacity:0.4000000059604645"/><path d="M455.21,70.36c11.81,0,11.81,17.72,0,17.72S443.4,70.36,455.21,70.36Z" transform="translate(-8.49 -15.28)" style="fill:#9664ff;opacity:0.4000000059604645"/><path d="M455.21,43.09c11.81,0,11.81,17.72,0,17.72S443.4,43.09,455.21,43.09Z" transform="translate(-8.49 -15.28)" style="fill:#9664ff;opacity:0.4000000059604645"/><rect x="465.12" y="55.07" width="17.72" height="17.72" style="fill:#9664ff;opacity:0.4000000059604645"/><path d="M482.47,43.09c11.81,0,11.81,17.72,0,17.72S470.66,43.09,482.47,43.09Z" transform="translate(-8.49 -15.28)" style="fill:#9664ff;opacity:0.4000000059604645"/><path d="M500.18,37.52h0Z" transform="translate(-8.49 -15.28)" style="fill:none;stroke:#9664ff;stroke-linecap:round;stroke-linejoin:round"/><path d="M219.41,37.52v0Z" transform="translate(-8.49 -15.28)" style="fill:none;stroke:#9664ff;stroke-linecap:round;stroke-linejoin:round"/><path d="M219.41,93.65h0Z" transform="translate(-8.49 -15.28)" style="fill:none;stroke:#9664ff;stroke-linecap:round;stroke-linejoin:round"/><path d="M489.45,93.65l10.73-10.73Z" transform="translate(-8.49 -15.28)" style="fill:none;stroke:#9664ff;stroke-linecap:round;stroke-linejoin:round"/><path d="M500.18,82.92v0Z" transform="translate(-8.49 -15.28)" style="fill:none;stroke:#9664ff;stroke-linecap:round;stroke-linejoin:round"/></g><g id="J1"><path d="M526.09,70.36c11.81,0,11.81,17.72,0,17.72S514.28,70.36,526.09,70.36Z" transform="translate(-8.49 -15.28)" style="fill:#9664ff;opacity:0.4000000059604645"/><path d="M526.09,43.09c11.81,0,11.81,17.72,0,17.72S514.28,43.09,526.09,43.09Z" transform="translate(-8.49 -15.28)" style="fill:#9664ff;opacity:0.4000000059604645"/><path d="M553.35,70.36c11.81,0,11.81,17.72,0,17.72S541.54,70.36,553.35,70.36Z" transform="translate(-8.49 -15.28)" style="fill:#9664ff;opacity:0.4000000059604645"/><path d="M553.35,43.09c11.81,0,11.81,17.72,0,17.72S541.54,43.09,553.35,43.09Z" transform="translate(-8.49 -15.28)" style="fill:#9664ff;opacity:0.4000000059604645"/><path d="M580.61,70.36c11.82,0,11.82,17.72,0,17.72S568.8,70.36,580.61,70.36Z" transform="translate(-8.49 -15.28)" style="fill:#9664ff;opacity:0.4000000059604645"/><path d="M580.61,43.09c11.82,0,11.82,17.72,0,17.72S568.8,43.09,580.61,43.09Z" transform="translate(-8.49 -15.28)" style="fill:#9664ff;opacity:0.4000000059604645"/><path d="M607.87,70.36c11.82,0,11.82,17.72,0,17.72S596.06,70.36,607.87,70.36Z" transform="translate(-8.49 -15.28)" style="fill:#9664ff;opacity:0.4000000059604645"/><path d="M607.87,43.09c11.82,0,11.82,17.72,0,17.72S596.06,43.09,607.87,43.09Z" transform="translate(-8.49 -15.28)" style="fill:#9664ff;opacity:0.4000000059604645"/><path d="M635.14,70.36c11.81,0,11.81,17.72,0,17.72S623.32,70.36,635.14,70.36Z" transform="translate(-8.49 -15.28)" style="fill:#9664ff;opacity:0.4000000059604645"/><path d="M635.14,43.09c11.81,0,11.81,17.72,0,17.72S623.32,43.09,635.14,43.09Z" transform="translate(-8.49 -15.28)" style="fill:#9664ff;opacity:0.4000000059604645"/><path d="M662.4,70.36c11.81,0,11.81,17.72,0,17.72S650.58,70.36,662.4,70.36Z" transform="translate(-8.49 -15.28)" style="fill:#9664ff;opacity:0.4000000059604645"/><path d="M662.4,43.09c11.81,0,11.81,17.72,0,17.72S650.58,43.09,662.4,43.09Z" transform="translate(-8.49 -15.28)" style="fill:#9664ff;opacity:0.4000000059604645"/><path d="M689.66,70.36c11.81,0,11.81,17.72,0,17.72S677.84,70.36,689.66,70.36Z" transform="translate(-8.49 -15.28)" style="fill:#9664ff;opacity:0.4000000059604645"/><path d="M689.66,43.09c11.81,0,11.81,17.72,0,17.72S677.84,43.09,689.66,43.09Z" transform="translate(-8.49 -15.28)" style="fill:#9664ff;opacity:0.4000000059604645"/><rect x="699.57" y="55.07" width="17.72" height="17.72" style="fill:#9664ff;opacity:0.4000000059604645"/><path d="M716.92,43.09c11.81,0,11.81,17.72,0,17.72S705.11,43.09,716.92,43.09Z" transform="translate(-8.49 -15.28)" style="fill:#9664ff;opacity:0.4000000059604645"/><path d="M734.57,93.65h0Z" transform="translate(-8.49 -15.28)" style="fill:none;stroke:#9664ff;stroke-linecap:round;stroke-linejoin:round"/><path d="M508.43,93.65v0Z" transform="translate(-8.49 -15.28)" style="fill:none;stroke:#9664ff;stroke-linecap:round;stroke-linejoin:round"/><path d="M508.43,37.52h0Z" transform="translate(-8.49 -15.28)" style="fill:none;stroke:#9664ff;stroke-linecap:round;stroke-linejoin:round"/><path d="M734.57,37.52v0Z" transform="translate(-8.49 -15.28)" style="fill:none;stroke:#9664ff;stroke-linecap:round;stroke-linejoin:round"/></g><g id="D12"><rect x="942.75" y="120.08" width="7.09" height="7.09" style="fill:#9664ff;opacity:0.4000000059604645"/><rect x="942.75" y="97.56" width="7.09" height="7.09" style="fill:#9664ff;opacity:0.4000000059604645"/><rect x="956.71" y="120.08" width="7.09" height="7.09" style="fill:#9664ff;opacity:0.4000000059604645"/><rect x="956.71" y="97.56" width="7.09" height="7.09" style="fill:#9664ff;opacity:0.4000000059604645"/><path d="M948.35,113.18v0Z" transform="translate(-8.49 -15.28)" style="fill:none;stroke:#9664ff;stroke-linecap:round;stroke-linejoin:round"/><path d="M948.35,142.13h0Z" transform="translate(-8.49 -15.28)" style="fill:none;stroke:#9664ff;stroke-linecap:round;stroke-linejoin:round"/><path d="M975.18,142.13v0Z" transform="translate(-8.49 -15.28)" style="fill:none;stroke:#9664ff;stroke-linecap:round;stroke-linejoin:round"/><path d="M975.18,113.18h0Z" transform="translate(-8.49 -15.28)" style="fill:none;stroke:#9664ff;stroke-linecap:round;stroke-linejoin:round"/></g><g id="uC"><path d="M766.67,234.44h0Z" transform="translate(-8.49 -15.28)" style="fill:none;stroke:#9664ff;stroke-linecap:round;stroke-linejoin:round"/><path d="M616.41,234.44v0Z" transform="translate(-8.49 -15.28)" style="fill:none;stroke:#9664ff;stroke-linecap:round;stroke-linejoin:round"/><path d="M616.41,384.7h0Z" transform="translate(-8.49 -15.28)" style="fill:none;stroke:#9664ff;stroke-linecap:round;stroke-linejoin:round"/><path d="M759.86,384.7l6.81-6.81Z" transform="translate(-8.49 -15.28)" style="fill:none;stroke:#9664ff;stroke-linecap:round;stroke-linejoin:round"/><path d="M766.67,377.89v0Z" transform="translate(-8.49 -15.28)" style="fill:none;stroke:#9664ff;stroke-linecap:round;stroke-linejoin:round"/></g><g id="PCB"><polygon points="1044.13 590.8 1046.23 590.7 1047.54 590.53 1048.83 590.28 1050.1 589.96 1051.36 589.55 1052.58 589.07 1053.78 588.51 1054.93 587.88 1056.05 587.19 1057.12 586.42 1058.15 585.59 1059.12 584.7 1060.03 583.75 1060.88 582.75 1061.68 581.7 1062.4 580.6 1063.06 579.46 1063.64 578.28 1064.15 577.06 1064.59 575.82 1064.95 574.55 1065.23 573.27 1065.43 571.97 1065.55 570.65 1065.59 569.34 1065.59 21.97 1065.49 19.86 1065.32 18.56 1065.07 17.26 1064.74 15.99 1064.34 14.73 1063.86 13.51 1063.3 12.31 1062.67 11.16 1061.97 10.04 1061.21 8.97 1060.38 7.95 1059.49 6.97 1058.54 6.06 1057.54 5.21 1056.49 4.42 1055.39 3.69 1054.24 3.04 1053.07 2.45 1051.85 1.94 1050.61 1.5 1049.34 1.14 1048.06 0.86 1046.75 0.66 1045.44 0.54 1044.13 0.5 67.44 0.5 65.34 0.6 64.03 0.77 62.74 1.02 61.46 1.35 60.21 1.75 58.98 2.24 57.79 2.79 56.63 3.42 55.52 4.12 54.44 4.88 53.42 5.71 52.45 6.6 51.54 7.55 50.68 8.55 49.89 9.61 49.17 10.71 48.51 11.85 47.92 13.03 47.41 14.24 46.98 15.48 46.62 16.75 46.34 18.04 46.14 19.34 46.02 20.65 45.98 21.97 45.98 569.34 46.08 571.44 46.25 572.75 46.5 574.04 46.83 575.32 47.23 576.57 47.71 577.8 48.27 578.99 48.9 580.15 49.59 581.26 50.36 582.34 51.19 583.36 52.08 584.33 53.03 585.24 54.03 586.1 55.08 586.89 56.18 587.61 57.32 588.27 58.5 588.86 59.72 589.37 60.96 589.8 62.23 590.16 63.51 590.44 64.81 590.64 66.13 590.76 67.44 590.8 169.4 590.8 1044.13 590.8" style="fill:none;stroke:#37f7d7;stroke-linecap:square;stroke-miterlimit:10"/><path d="M80.37,548.84c22.71,0,22.71,34.08,0,34.08S57.65,548.84,80.37,548.84Z" transform="translate(-8.49 -15.28)" style="fill:none;stroke:#9664ff;stroke-linecap:square;stroke-miterlimit:10"/><path d="M80.37,39c22.71,0,22.71,34.07,0,34.07S57.65,39,80.37,39Z" transform="translate(-8.49 -15.28)" style="fill:none;stroke:#9664ff;stroke-linecap:square;stroke-miterlimit:10"/><path d="M1033.87,548.84c22.72,0,22.72,34.08,0,34.08S1011.16,548.84,1033.87,548.84Z" transform="translate(-8.49 -15.28)" style="fill:none;stroke:#9664ff;stroke-linecap:square;stroke-miterlimit:10"/><path d="M1033.87,39c22.72,0,22.72,34.07,0,34.07S1011.16,39,1033.87,39Z" transform="translate(-8.49 -15.28)" style="fill:none;stroke:#9664ff;stroke-linecap:square;stroke-miterlimit:10"/></g></svg>