<svg xmlns="http://www.w3.org/2000/svg" viewBox="0 0 106.91 37.53"><g id="Capa_2" data-name="Capa 2"><g id="Capa_1-2" data-name="Capa 1"><polygon points="0.5 36.69 0.5 0.5 11.64 0.5 30.46 22.23 30.46 0.5 30.57 0.5 41.66 18.55 30.46 36.69 11.64 14.81 11.64 36.69 0.5 36.69" style="fill:none;stroke:#9664ff;stroke-linecap:square;stroke-miterlimit:10"/><polygon points="33.27 0.5 44.36 0.5 53.92 12.46 61.4 0.5 74.62 0.5 63.47 18.55 74.62 36.69 61.4 36.69 53.92 24.73 46.43 36.69 33.16 36.69 44.36 18.55 33.27 0.5" style="fill:none;stroke:#9664ff;stroke-linecap:square;stroke-miterlimit:10"/><path d="M92.2,19.72H77.38V9.4H92.45l.24,0,.23,0,.23,0,.23.07.22.08.22.09.21.11.2.12.2.13.19.15.17.15.17.17.16.18.14.18.14.2.12.2.1.21.1.22.08.22.06.23.06.23,0,.23,0,.24v3l0,.35,0,.23,0,.23-.06.22-.07.22-.08.22-.1.21-.11.2-.13.2-.13.19-.15.18-.15.17-.17.16-.18.15-.18.14-.2.13-.2.11-.21.11-.21.09-.22.08-.22.06-.23.05-.23,0-.23,0ZM66.13,18.55,77.28.5h18.4l1,.05.65.09L98,.76l.64.17.62.2.62.24.59.28.58.31.56.35.54.38.51.42.48.44.46.48.43.5.39.52.37.55.32.58.3.59.25.6.22.62.18.64.14.64.1.65.06.66,0,.66v6.64l0,1.05-.08.65-.13.65-.16.64-.21.63-.24.61-.27.6-.32.58-.35.55-.38.54-.41.51-.45.49-.47.45-.51.43-.52.4-.55.36-.57.33-.59.29-.61.26-.62.21-.63.18-.65.14-.65.1-.65.06-.66,0H77.38v8.08h-.1Z" style="fill:none;stroke:#9664ff;stroke-linecap:square;stroke-miterlimit:10"/></g></g></svg>